<svg xmlns="http://www.w3.org/2000/svg" xmlns:xlink="http://www.w3.org/1999/xlink" width="500" zoomAndPan="magnify" viewBox="0 0 375 374.999991" height="500" preserveAspectRatio="xMidYMid meet" version="1.0"><defs><g/><clipPath id="40efe92ad3"><path d="M 127.527344 57.867188 L 247.527344 57.867188 L 247.527344 248.253906 L 127.527344 248.253906 Z M 127.527344 57.867188 " clip-rule="nonzero"/></clipPath></defs><rect x="-37.5" width="450" fill="#ffffff" y="-37.499999" height="449.999989" fill-opacity="1"/><rect x="-37.5" width="450" fill="#fdfaf1" y="-37.499999" height="449.999989" fill-opacity="1"/><path fill="#ffc538" d="M 186.804688 60.085938 C 186.804688 59.683594 187.132812 60.085938 187.535156 60.085938 C 187.933594 60.085938 188.257812 59.683594 188.257812 60.085938 C 188.257812 60.300781 188.160156 60.488281 188.011719 60.625 C 188.089844 60.632812 188.167969 60.644531 188.246094 60.660156 C 188.390625 60.492188 188.476562 60.28125 188.476562 60.050781 C 188.476562 59.53125 188.054688 59.105469 187.535156 59.105469 C 187.011719 59.105469 186.589844 59.53125 186.589844 60.050781 C 186.589844 60.28125 186.679688 60.492188 186.820312 60.660156 C 186.894531 60.644531 186.976562 60.632812 187.054688 60.625 C 186.90625 60.488281 186.804688 60.300781 186.804688 60.085938 " fill-opacity="1" fill-rule="nonzero"/><path fill="#ffc538" d="M 187.046875 126.566406 L 187.535156 126.292969 L 188.023438 126.566406 C 188.179688 126.65625 189.179688 127.226562 190.585938 128.144531 L 190.835938 124.0625 L 192.714844 124.0625 L 192.214844 129.246094 C 192.28125 129.292969 192.347656 129.339844 192.414062 129.386719 C 192.546875 129.390625 192.671875 129.398438 192.800781 129.402344 L 193.324219 123.503906 L 181.742188 123.503906 L 182.265625 129.402344 C 182.398438 129.398438 182.519531 129.390625 182.652344 129.386719 C 184.96875 127.746094 186.824219 126.691406 187.046875 126.566406 " fill-opacity="1" fill-rule="nonzero"/><path fill="#ffc538" d="M 191.175781 94.390625 L 183.894531 94.390625 L 183.6875 96.371094 L 191.378906 96.371094 L 191.175781 94.390625 " fill-opacity="1" fill-rule="nonzero"/><path fill="#ffc538" d="M 191.507812 97.609375 L 183.558594 97.609375 L 183.351562 99.589844 L 191.714844 99.589844 L 191.507812 97.609375 " fill-opacity="1" fill-rule="nonzero"/><path fill="#ffc538" d="M 193.515625 116.925781 L 181.550781 116.925781 L 181.34375 118.910156 L 193.722656 118.910156 L 193.515625 116.925781 " fill-opacity="1" fill-rule="nonzero"/><path fill="#ffc538" d="M 190.503906 87.949219 L 184.566406 87.949219 L 184.359375 89.929688 L 190.710938 89.929688 L 190.503906 87.949219 " fill-opacity="1" fill-rule="nonzero"/><path fill="#ffc538" d="M 190.839844 91.167969 L 184.230469 91.167969 L 184.023438 93.148438 L 191.046875 93.148438 L 190.839844 91.167969 " fill-opacity="1" fill-rule="nonzero"/><path fill="#ffc538" d="M 192.847656 110.488281 L 182.21875 110.488281 L 182.011719 112.46875 L 193.054688 112.46875 L 192.847656 110.488281 " fill-opacity="1" fill-rule="nonzero"/><path fill="#ffc538" d="M 193.183594 113.707031 L 181.882812 113.707031 L 181.679688 115.6875 L 193.386719 115.6875 L 193.183594 113.707031 " fill-opacity="1" fill-rule="nonzero"/><path fill="#ffc538" d="M 191.84375 100.828125 L 183.226562 100.828125 L 183.015625 102.808594 L 192.046875 102.808594 L 191.84375 100.828125 " fill-opacity="1" fill-rule="nonzero"/><path fill="#ffc538" d="M 192.175781 104.050781 L 182.890625 104.050781 L 182.683594 106.03125 L 192.382812 106.03125 L 192.175781 104.050781 " fill-opacity="1" fill-rule="nonzero"/><path fill="#ffc538" d="M 192.511719 107.269531 L 182.554688 107.269531 L 182.347656 109.25 L 192.71875 109.25 L 192.511719 107.269531 " fill-opacity="1" fill-rule="nonzero"/><path fill="#ffc538" d="M 190.167969 84.730469 L 184.898438 84.730469 L 184.691406 86.710938 L 190.375 86.710938 L 190.167969 84.730469 " fill-opacity="1" fill-rule="nonzero"/><path fill="#ffc538" d="M 187.535156 64.242188 C 188.597656 64.242188 189.457031 63.183594 189.457031 64.242188 C 189.457031 65.300781 188.597656 66.160156 187.535156 66.160156 C 186.472656 66.160156 185.613281 65.300781 185.613281 64.242188 C 185.613281 63.183594 186.472656 64.242188 187.535156 64.242188 Z M 187.535156 66.660156 C 188.867188 66.660156 189.953125 65.574219 189.953125 64.242188 C 189.953125 62.910156 188.867188 61.828125 187.535156 61.828125 C 186.199219 61.828125 185.113281 62.910156 185.113281 64.242188 C 185.113281 65.574219 186.199219 66.660156 187.535156 66.660156 " fill-opacity="1" fill-rule="nonzero"/><path fill="#ffffff" d="M 202.617188 142.925781 C 203.421875 143.648438 204.519531 145.355469 203.695312 149.019531 C 202.949219 152.347656 201.121094 155.421875 200.0625 157.007812 C 202.15625 157.125 203.867188 157.25 205.125 157.355469 C 208.917969 147.371094 210.382812 137.230469 206.191406 133.609375 C 203.589844 132.5625 199.953125 131.871094 195.242188 131.53125 C 199.09375 134.675781 202.972656 138.890625 202.617188 142.925781 " fill-opacity="1" fill-rule="nonzero"/><path fill="#ffffff" d="M 163.839844 142.828125 C 164.679688 148.640625 167.347656 155.40625 168.21875 157.511719 C 169.335938 157.398438 171.691406 157.191406 175.007812 157.007812 C 173.945312 155.421875 172.117188 152.347656 171.367188 149.019531 C 170.546875 145.355469 171.644531 143.648438 172.449219 142.925781 C 172.09375 138.890625 175.972656 134.675781 179.824219 131.53125 C 172.125 132.089844 167.285156 133.574219 165.148438 136.039062 C 163.773438 137.621094 163.382812 139.652344 163.839844 142.828125 " fill-opacity="1" fill-rule="nonzero"/><path fill="#ffffff" d="M 187.535156 163.699219 C 193.242188 163.699219 198.210938 163.867188 202.171875 164.070312 L 202.171875 161.675781 L 195.988281 161.5625 C 193.167969 161.519531 190.351562 161.484375 187.535156 161.492188 C 184.71875 161.480469 181.898438 161.515625 179.078125 161.558594 L 170.613281 161.71875 C 173.414062 161.328125 176.230469 161.050781 179.050781 160.882812 C 181.875 160.703125 184.703125 160.628906 187.535156 160.621094 C 190.363281 160.628906 193.191406 160.699219 196.011719 160.882812 C 198.070312 161.003906 200.125 161.1875 202.171875 161.425781 L 202.171875 159.125 C 198.699219 158.894531 193.648438 158.65625 187.535156 158.65625 C 177.9375 158.65625 170.949219 159.242188 168.582031 159.46875 L 168.582031 164.332031 C 172.9375 164.027344 179.503906 163.699219 187.535156 163.699219 " fill-opacity="1" fill-rule="nonzero"/><path fill="#ffffff" d="M 163.851562 166.710938 L 163.851562 172.042969 C 168.898438 171.664062 177.1875 171.199219 187.535156 171.199219 C 195.082031 171.199219 201.53125 171.445312 206.429688 171.726562 L 206.429688 169.085938 L 197.914062 168.929688 C 194.449219 168.878906 190.992188 168.832031 187.535156 168.839844 C 184.074219 168.828125 180.613281 168.875 177.15625 168.925781 L 166.757812 169.121094 C 170.195312 168.644531 173.65625 168.300781 177.121094 168.09375 C 180.585938 167.875 184.0625 167.785156 187.535156 167.773438 C 191.007812 167.78125 194.480469 167.871094 197.945312 168.09375 C 200.78125 168.261719 203.613281 168.527344 206.429688 168.878906 L 206.429688 166.316406 C 202.117188 166.015625 195.570312 165.6875 187.535156 165.6875 C 175.347656 165.6875 166.5625 166.445312 163.851562 166.710938 " fill-opacity="1" fill-rule="nonzero"/><path fill="#ffffff" d="M 159.523438 174.410156 L 159.523438 179.46875 L 210.070312 179.46875 L 210.070312 176.75 L 200.375 176.570312 C 196.089844 176.503906 191.8125 176.449219 187.535156 176.464844 C 183.253906 176.449219 178.972656 176.503906 174.691406 176.566406 L 161.832031 176.808594 C 166.085938 176.21875 170.363281 175.796875 174.652344 175.539062 C 178.941406 175.265625 183.238281 175.152344 187.535156 175.140625 C 191.832031 175.152344 196.128906 175.261719 200.414062 175.535156 C 203.640625 175.730469 206.859375 176.015625 210.070312 176.398438 L 210.070312 173.949219 C 205.007812 173.589844 197.175781 173.183594 187.535156 173.183594 C 172.964844 173.183594 162.523438 174.109375 159.523438 174.410156 " fill-opacity="1" fill-rule="nonzero"/><path fill="#ffffff" d="M 170.40625 197.226562 C 160.21875 199.355469 157.101562 202.726562 157.101562 202.726562 L 155.789062 202.726562 L 155.789062 197.226562 Z M 216.363281 197.226562 L 219.464844 197.226562 L 219.464844 202.726562 L 184.882812 202.726562 C 208.980469 200.59375 216.363281 197.226562 216.363281 197.226562 Z M 220.355469 203.546875 L 220.355469 196.566406 L 154.710938 196.566406 L 154.710938 203.546875 L 220.355469 203.546875 " fill-opacity="1" fill-rule="nonzero"/><path fill="#ffffff" d="M 152.730469 194.578125 L 222.335938 194.578125 L 222.335938 192.542969 L 152.730469 192.542969 L 152.730469 194.578125 " fill-opacity="1" fill-rule="nonzero"/><path fill="#ffffff" d="M 224.324219 190.558594 L 226.203125 190.558594 L 226.203125 189.367188 L 148.863281 189.367188 L 148.863281 190.558594 L 224.324219 190.558594 " fill-opacity="1" fill-rule="nonzero"/><path fill="#ffffff" d="M 165.824219 182.0625 C 152.925781 183.886719 148.976562 186.773438 148.976562 186.773438 L 147.316406 186.773438 L 147.316406 182.0625 Z M 227.9375 182.0625 L 227.9375 186.773438 L 184.15625 186.773438 C 214.664062 184.949219 224.011719 182.0625 224.011719 182.0625 Z M 228.523438 187.378906 L 228.523438 181.457031 L 146.542969 181.457031 L 146.542969 187.378906 L 228.523438 187.378906 " fill-opacity="1" fill-rule="nonzero"/><path fill="#ffffff" d="M 148.863281 205.53125 L 148.863281 205.910156 L 226.203125 205.910156 L 226.203125 205.53125 L 148.863281 205.53125 " fill-opacity="1" fill-rule="nonzero"/><path fill="#ffffff" d="M 143.339844 207.894531 L 143.339844 208.269531 L 231.726562 208.269531 L 231.726562 207.894531 L 143.339844 207.894531 " fill-opacity="1" fill-rule="nonzero"/><path fill="#ffffff" d="M 137.820312 210.257812 L 137.820312 211.910156 L 237.25 211.910156 L 237.25 210.257812 L 137.820312 210.257812 " fill-opacity="1" fill-rule="nonzero"/><path fill="#ffffff" d="M 161.304688 215.488281 C 165.675781 215.398438 170.046875 215.378906 174.417969 215.320312 L 187.535156 215.269531 L 200.648438 215.316406 C 205.015625 215.375 209.390625 215.390625 213.761719 215.484375 C 222.5 215.613281 231.246094 215.875 239.984375 216.257812 C 231.246094 216.644531 222.5 216.902344 213.761719 217.035156 C 209.390625 217.125 205.015625 217.140625 200.648438 217.199219 L 187.535156 217.25 L 174.417969 217.195312 C 170.046875 217.140625 165.675781 217.121094 161.304688 217.03125 C 152.566406 216.898438 143.824219 216.644531 135.082031 216.257812 C 143.824219 215.875 152.566406 215.617188 161.304688 215.488281 Z M 132.386719 213.898438 L 132.386719 218.546875 L 242.679688 218.546875 L 242.679688 213.898438 L 132.386719 213.898438 " fill-opacity="1" fill-rule="nonzero"/><path fill="#ffffff" d="M 182.738281 245.050781 C 225.632812 235.941406 238.777344 221.535156 238.777344 221.535156 L 244.296875 221.535156 L 244.296875 245.050781 Z M 133.28125 245.050781 L 130.949219 245.050781 L 130.949219 221.535156 L 156.96875 221.535156 C 138.835938 230.644531 133.28125 245.050781 133.28125 245.050781 Z M 129.519531 220.53125 L 129.519531 246.269531 L 245.546875 246.269531 L 245.546875 220.53125 L 129.519531 220.53125 " fill-opacity="1" fill-rule="nonzero"/><g clip-path="url(#40efe92ad3)"><path fill="#212121" d="M 242.679688 213.898438 L 242.679688 218.546875 L 132.386719 218.546875 L 132.386719 213.898438 Z M 237.25 210.257812 L 237.25 211.910156 L 137.820312 211.910156 L 137.820312 210.257812 Z M 231.726562 207.894531 L 231.726562 208.269531 L 143.339844 208.269531 L 143.339844 207.894531 Z M 226.203125 205.53125 L 226.203125 205.910156 L 148.863281 205.910156 L 148.863281 205.53125 Z M 220.355469 196.566406 L 220.355469 203.546875 L 154.710938 203.546875 L 154.710938 196.566406 Z M 222.335938 192.542969 L 222.335938 194.578125 L 152.730469 194.578125 L 152.730469 192.542969 Z M 187.535156 173.183594 C 197.175781 173.183594 205.007812 173.589844 210.070312 173.949219 L 210.070312 176.398438 C 206.859375 176.015625 203.640625 175.730469 200.414062 175.535156 C 196.128906 175.261719 191.832031 175.152344 187.535156 175.140625 C 183.238281 175.152344 178.941406 175.265625 174.652344 175.539062 C 170.363281 175.796875 166.085938 176.21875 161.832031 176.808594 L 174.691406 176.566406 C 178.972656 176.503906 183.253906 176.449219 187.535156 176.464844 C 191.8125 176.449219 196.089844 176.503906 200.375 176.570312 L 210.070312 176.75 L 210.070312 179.46875 L 159.523438 179.46875 L 159.523438 174.410156 C 162.523438 174.109375 172.964844 173.183594 187.535156 173.183594 Z M 187.535156 165.6875 C 195.570312 165.6875 202.117188 166.015625 206.429688 166.316406 L 206.429688 168.878906 C 203.613281 168.527344 200.78125 168.261719 197.945312 168.09375 C 194.480469 167.871094 191.007812 167.78125 187.535156 167.773438 C 184.0625 167.785156 180.585938 167.875 177.121094 168.09375 C 173.65625 168.300781 170.195312 168.644531 166.757812 169.121094 L 177.15625 168.925781 C 180.613281 168.875 184.074219 168.828125 187.535156 168.839844 C 190.992188 168.832031 194.449219 168.878906 197.914062 168.929688 L 206.429688 169.085938 L 206.429688 171.726562 C 201.53125 171.445312 195.082031 171.199219 187.535156 171.199219 C 177.1875 171.199219 168.898438 171.664062 163.851562 172.042969 L 163.851562 166.710938 C 166.5625 166.445312 175.347656 165.6875 187.535156 165.6875 Z M 168.582031 159.46875 C 170.949219 159.242188 177.9375 158.65625 187.535156 158.65625 C 193.648438 158.65625 198.699219 158.894531 202.171875 159.125 L 202.171875 161.425781 C 200.125 161.1875 198.070312 161.003906 196.011719 160.882812 C 193.191406 160.699219 190.363281 160.628906 187.535156 160.621094 C 184.703125 160.628906 181.875 160.703125 179.050781 160.882812 C 176.230469 161.050781 173.414062 161.328125 170.613281 161.71875 L 179.078125 161.558594 C 181.898438 161.515625 184.71875 161.480469 187.535156 161.492188 C 190.351562 161.484375 193.167969 161.519531 195.988281 161.5625 L 202.171875 161.675781 L 202.171875 164.070312 C 198.210938 163.867188 193.242188 163.699219 187.535156 163.699219 C 179.503906 163.699219 172.9375 164.027344 168.582031 164.332031 Z M 206.191406 133.609375 C 210.382812 137.230469 208.917969 147.371094 205.125 157.355469 C 203.867188 157.25 202.15625 157.125 200.0625 157.007812 C 201.121094 155.421875 202.949219 152.347656 203.695312 149.019531 C 204.519531 145.355469 203.421875 143.648438 202.617188 142.925781 C 202.972656 138.890625 199.09375 134.675781 195.242188 131.53125 C 199.953125 131.871094 203.589844 132.5625 206.191406 133.609375 Z M 182.082031 145.398438 C 181.808594 144.652344 181.714844 143.835938 181.808594 143.023438 C 181.921875 142.210938 182.300781 141.414062 182.90625 140.820312 C 183.519531 140.21875 184.316406 139.898438 185.105469 139.652344 C 185.507812 139.570312 185.910156 139.496094 186.316406 139.441406 L 187.535156 139.371094 L 188.75 139.441406 C 189.15625 139.496094 189.5625 139.570312 189.964844 139.65625 C 190.75 139.898438 191.546875 140.21875 192.160156 140.820312 C 192.765625 141.414062 193.144531 142.210938 193.257812 143.023438 C 193.347656 143.835938 193.261719 144.652344 192.984375 145.398438 C 193.265625 143.863281 192.976562 142.152344 191.816406 141.191406 C 190.648438 140.273438 189.066406 140.023438 187.535156 140.03125 C 186 140.023438 184.417969 140.273438 183.25 141.195312 C 182.09375 142.152344 181.804688 143.863281 182.082031 145.398438 Z M 174.492188 143.179688 C 173.429688 138.039062 183.117188 131.160156 187.535156 128.578125 C 191.949219 131.160156 201.636719 138.03125 200.574219 143.179688 L 200.367188 143.984375 L 201.144531 144.289062 C 201.636719 144.535156 202.394531 145.746094 201.757812 148.585938 C 200.984375 152.027344 198.84375 155.292969 198.019531 156.464844 C 197.121094 156.355469 195.257812 156.15625 192.644531 156.027344 C 194.199219 152.703125 197.265625 145.382812 194.222656 145.382812 C 194.222656 145.382812 196.425781 138.390625 187.535156 138.390625 C 178.636719 138.390625 180.84375 145.382812 180.84375 145.382812 C 177.800781 145.382812 180.871094 152.703125 182.421875 156.027344 C 179.808594 156.15625 177.941406 156.355469 177.046875 156.464844 C 176.222656 155.292969 174.082031 152.027344 173.308594 148.585938 C 172.671875 145.746094 173.429688 144.535156 173.886719 144.308594 L 174.664062 144 Z M 181.742188 123.503906 L 193.324219 123.503906 L 192.800781 129.402344 C 192.671875 129.398438 192.546875 129.390625 192.414062 129.386719 C 192.347656 129.339844 192.28125 129.292969 192.214844 129.246094 L 192.714844 124.0625 L 190.835938 124.0625 L 190.585938 128.144531 C 189.179688 127.226562 188.179688 126.65625 188.023438 126.566406 L 187.535156 126.292969 L 187.046875 126.566406 C 186.824219 126.691406 184.96875 127.746094 182.652344 129.386719 C 182.519531 129.390625 182.398438 129.398438 182.265625 129.402344 Z M 179.824219 131.53125 C 175.972656 134.675781 172.09375 138.890625 172.449219 142.925781 C 171.644531 143.648438 170.546875 145.355469 171.367188 149.019531 C 172.117188 152.347656 173.945312 155.421875 175.007812 157.007812 C 171.691406 157.191406 169.335938 157.398438 168.21875 157.511719 C 167.347656 155.40625 164.679688 148.640625 163.839844 142.828125 C 163.382812 139.652344 163.773438 137.621094 165.148438 136.039062 C 167.285156 133.574219 172.125 132.089844 179.824219 131.53125 Z M 146.542969 181.457031 L 228.523438 181.457031 L 228.523438 187.378906 L 146.542969 187.378906 Z M 148.863281 189.367188 L 226.203125 189.367188 L 226.203125 190.558594 L 148.863281 190.558594 Z M 245.546875 246.269531 L 129.519531 246.269531 L 129.519531 220.53125 L 245.546875 220.53125 Z M 181.550781 116.925781 L 193.515625 116.925781 L 193.722656 118.910156 L 181.34375 118.910156 Z M 184.898438 84.730469 L 190.167969 84.730469 L 190.375 86.710938 L 184.691406 86.710938 Z M 184.566406 87.949219 L 190.503906 87.949219 L 190.710938 89.929688 L 184.359375 89.929688 Z M 184.230469 91.167969 L 190.839844 91.167969 L 191.046875 93.148438 L 184.023438 93.148438 Z M 183.894531 94.390625 L 191.175781 94.390625 L 191.378906 96.371094 L 183.6875 96.371094 Z M 183.558594 97.609375 L 191.507812 97.609375 L 191.714844 99.589844 L 183.351562 99.589844 Z M 183.226562 100.828125 L 191.84375 100.828125 L 192.046875 102.808594 L 183.015625 102.808594 Z M 182.890625 104.050781 L 192.175781 104.050781 L 192.382812 106.03125 L 182.683594 106.03125 Z M 182.554688 107.269531 L 192.511719 107.269531 L 192.71875 109.25 L 182.347656 109.25 Z M 182.21875 110.488281 L 192.847656 110.488281 L 193.054688 112.46875 L 182.011719 112.46875 Z M 181.882812 113.707031 L 193.183594 113.707031 L 193.386719 115.6875 L 181.679688 115.6875 Z M 187.535156 61.828125 C 188.867188 61.828125 189.953125 62.910156 189.953125 64.242188 C 189.953125 65.574219 188.867188 66.660156 187.535156 66.660156 C 186.199219 66.660156 185.113281 65.574219 185.113281 64.242188 C 185.113281 62.910156 186.199219 61.828125 187.535156 61.828125 Z M 186.589844 60.050781 C 186.589844 59.53125 187.011719 59.105469 187.535156 59.105469 C 188.054688 59.105469 188.476562 59.53125 188.476562 60.050781 C 188.476562 60.28125 188.390625 60.492188 188.246094 60.660156 C 188.167969 60.644531 188.089844 60.632812 188.011719 60.625 C 188.160156 60.488281 188.257812 60.300781 188.257812 60.085938 C 188.257812 59.683594 187.933594 60.085938 187.535156 60.085938 C 187.132812 60.085938 186.804688 59.683594 186.804688 60.085938 C 186.804688 60.300781 186.90625 60.488281 187.054688 60.625 C 186.976562 60.632812 186.894531 60.644531 186.820312 60.660156 C 186.679688 60.492188 186.589844 60.28125 186.589844 60.050781 Z M 187.535156 67.933594 C 189.78125 67.933594 191.742188 66.683594 192.757812 64.84375 C 192.445312 66.722656 191.140625 68.265625 189.402344 68.925781 C 188.816406 68.863281 188.191406 68.828125 187.535156 68.828125 C 186.875 68.828125 186.25 68.863281 185.667969 68.925781 C 183.925781 68.265625 182.621094 66.722656 182.308594 64.84375 C 183.324219 66.683594 185.285156 67.933594 187.535156 67.933594 Z M 185.507812 75.164062 C 185.507812 73.867188 183.664062 71.902344 182.519531 70.808594 C 183.554688 70.492188 185.363281 70.066406 187.535156 70.066406 C 188.421875 70.066406 189.246094 70.140625 189.984375 70.25 C 189.929688 70.332031 189.871094 70.421875 189.808594 70.523438 C 187.875 70.527344 185.949219 70.648438 184.046875 70.902344 C 185.863281 70.855469 187.671875 70.925781 189.46875 71.097656 C 189.011719 71.921875 188.539062 73.023438 188.410156 74.203125 L 185.914062 74.960938 L 188.453125 75.734375 C 188.734375 77.652344 189.714844 80.515625 190.386719 82.347656 L 182.550781 82.644531 L 190.609375 82.945312 C 190.6875 83.148438 190.757812 83.335938 190.820312 83.492188 L 181.714844 83.492188 C 182.945312 81.273438 185.507812 76.492188 185.507812 75.164062 Z M 244.667969 218.546875 L 244.667969 211.910156 L 239.234375 211.910156 L 239.234375 208.269531 L 233.714844 208.269531 L 233.714844 205.910156 L 228.191406 205.910156 L 228.191406 203.546875 L 222.34375 203.546875 L 222.34375 196.566406 L 224.324219 196.566406 L 224.324219 192.542969 L 228.191406 192.542969 L 228.191406 189.367188 L 230.511719 189.367188 L 230.511719 179.46875 L 217.53125 179.46875 L 217.53125 172.632812 L 216.652344 172.527344 C 216.613281 172.523438 215.398438 172.386719 213.203125 172.203125 L 213.203125 164.933594 L 212.324219 164.832031 C 212.289062 164.828125 210.921875 164.671875 208.476562 164.480469 L 208.476562 158.777344 C 209.042969 157.453125 212.226562 149.816406 213.195312 143.109375 C 213.558594 140.582031 213.6875 137.347656 211.421875 134.738281 C 208.847656 131.773438 203.484375 130.078125 194.789062 129.511719 L 195.402344 122.597656 C 195.425781 122.320312 195.332031 122.046875 195.144531 121.839844 C 194.957031 121.632812 194.691406 121.519531 194.414062 121.519531 L 193.074219 121.519531 L 193.074219 120.148438 L 194.414062 120.148438 C 194.5 120.148438 194.582031 120.128906 194.660156 120.09375 C 194.679688 120.085938 194.691406 120.070312 194.710938 120.0625 C 194.765625 120.03125 194.816406 119.996094 194.859375 119.953125 C 194.867188 119.945312 194.871094 119.945312 194.875 119.941406 C 194.890625 119.921875 194.898438 119.898438 194.914062 119.875 C 194.941406 119.832031 194.972656 119.792969 194.988281 119.742188 C 195.003906 119.707031 195.003906 119.667969 195.011719 119.632812 C 195.019531 119.597656 195.03125 119.566406 195.03125 119.527344 C 195.03125 119.515625 195.027344 119.503906 195.027344 119.496094 C 195.027344 119.484375 195.03125 119.476562 195.03125 119.464844 L 191.417969 84.730469 L 195.476562 84.730469 L 194.953125 83.804688 C 193.226562 80.769531 190.800781 76.078125 190.800781 75.164062 C 190.800781 74.417969 192.53125 72.4375 194.136719 71.03125 L 194.878906 70.382812 L 193.96875 69.996094 C 193.90625 69.96875 192.933594 69.558594 191.390625 69.234375 C 193.011719 68.046875 194.070312 66.136719 194.070312 63.980469 C 194.070312 62.976562 193.839844 62.007812 193.390625 61.09375 L 191.808594 57.898438 L 192.21875 61.441406 C 192.238281 61.621094 192.25 61.800781 192.25 61.984375 C 192.25 63.15625 191.816406 64.230469 191.101562 65.054688 C 191.160156 64.792969 191.195312 64.523438 191.195312 64.242188 C 191.195312 62.921875 190.484375 61.761719 189.425781 61.121094 C 189.605469 60.800781 189.71875 60.4375 189.71875 60.050781 C 189.71875 58.847656 188.738281 57.867188 187.535156 57.867188 C 186.328125 57.867188 185.347656 58.847656 185.347656 60.050781 C 185.347656 60.441406 185.460938 60.800781 185.640625 61.121094 C 184.582031 61.761719 183.871094 62.921875 183.871094 64.242188 C 183.871094 64.523438 183.90625 64.792969 183.964844 65.054688 C 183.25 64.230469 182.816406 63.15625 182.816406 61.984375 C 182.816406 61.800781 182.828125 61.621094 182.847656 61.441406 L 183.257812 57.898438 L 181.675781 61.09375 C 181.222656 62.007812 180.996094 62.976562 180.996094 63.980469 C 180.996094 66.136719 182.058594 68.046875 183.679688 69.234375 C 182.132812 69.558594 181.160156 69.96875 181.09375 69.996094 L 180.191406 70.382812 L 180.929688 71.03125 C 182.535156 72.4375 184.265625 74.417969 184.265625 75.164062 C 184.265625 76.078125 181.839844 80.769531 180.113281 83.804688 L 179.589844 84.730469 L 183.648438 84.730469 L 180.035156 119.464844 C 180.035156 119.476562 180.042969 119.484375 180.039062 119.496094 C 180.039062 119.503906 180.03125 119.515625 180.03125 119.527344 C 180.03125 119.566406 180.050781 119.597656 180.054688 119.632812 C 180.0625 119.667969 180.0625 119.707031 180.078125 119.742188 C 180.09375 119.792969 180.125 119.832031 180.15625 119.875 C 180.171875 119.898438 180.175781 119.921875 180.191406 119.941406 C 180.195312 119.945312 180.203125 119.945312 180.207031 119.953125 C 180.25 119.996094 180.300781 120.03125 180.355469 120.0625 C 180.375 120.070312 180.386719 120.085938 180.410156 120.09375 C 180.484375 120.128906 180.566406 120.148438 180.652344 120.148438 L 181.996094 120.148438 L 181.996094 121.519531 L 180.652344 121.519531 C 180.375 121.519531 180.109375 121.632812 179.921875 121.839844 C 179.730469 122.046875 179.640625 122.320312 179.664062 122.597656 L 180.277344 129.511719 C 171.582031 130.078125 166.21875 131.773438 163.648438 134.738281 C 161.382812 137.347656 161.507812 140.582031 161.871094 143.109375 C 162.839844 149.816406 166.027344 157.453125 166.589844 158.777344 L 166.589844 164.480469 C 164.144531 164.671875 162.777344 164.828125 162.742188 164.832031 L 161.863281 164.933594 L 161.863281 172.203125 C 159.667969 172.386719 158.453125 172.523438 158.417969 172.527344 L 157.535156 172.632812 L 157.535156 179.46875 L 144.554688 179.46875 L 144.554688 189.367188 L 146.875 189.367188 L 146.875 192.542969 L 150.742188 192.542969 L 150.742188 196.566406 L 152.722656 196.566406 L 152.722656 203.546875 L 146.875 203.546875 L 146.875 205.910156 L 141.347656 205.910156 L 141.347656 208.269531 L 135.832031 208.269531 L 135.832031 211.910156 L 130.398438 211.910156 L 130.398438 218.546875 L 127.527344 218.546875 L 127.527344 248.253906 L 247.535156 248.253906 L 247.535156 218.546875 L 244.667969 218.546875 " fill-opacity="1" fill-rule="nonzero"/></g><path fill="#ffc538" d="M 185.667969 68.925781 C 186.25 68.863281 186.875 68.828125 187.535156 68.828125 C 188.191406 68.828125 188.816406 68.863281 189.402344 68.925781 C 191.140625 68.265625 192.445312 66.722656 192.757812 64.84375 C 191.742188 66.683594 189.78125 67.933594 187.535156 67.933594 C 185.285156 67.933594 183.324219 66.683594 182.308594 64.84375 C 182.621094 66.722656 183.925781 68.265625 185.667969 68.925781 " fill-opacity="1" fill-rule="nonzero"/><path fill="#dc8000" d="M 190.726562 83.492188 L 190.820312 83.492188 C 190.757812 83.335938 190.6875 83.148438 190.609375 82.945312 L 182.550781 82.644531 L 190.386719 82.347656 C 189.714844 80.515625 188.734375 77.652344 188.453125 75.734375 L 185.914062 74.960938 L 188.410156 74.203125 C 188.539062 73.023438 189.011719 71.921875 189.46875 71.097656 C 187.671875 70.925781 185.863281 70.855469 184.046875 70.902344 C 185.949219 70.648438 187.875 70.527344 189.808594 70.523438 C 189.871094 70.421875 189.929688 70.332031 189.984375 70.25 C 189.246094 70.140625 188.421875 70.066406 187.535156 70.066406 C 185.363281 70.066406 183.554688 70.492188 182.519531 70.808594 C 183.664062 71.902344 185.507812 73.867188 185.507812 75.164062 C 185.507812 76.492188 182.945312 81.273438 181.714844 83.492188 L 190.726562 83.492188 " fill-opacity="1" fill-rule="nonzero"/><path fill="#212121" d="M 244.296875 221.535156 L 238.777344 221.535156 C 238.777344 221.535156 225.632812 235.941406 182.738281 245.050781 L 244.296875 245.050781 L 244.296875 221.535156 " fill-opacity="1" fill-rule="nonzero"/><path fill="#212121" d="M 156.96875 221.535156 L 130.949219 221.535156 L 130.949219 245.050781 L 133.28125 245.050781 C 133.28125 245.050781 138.835938 230.644531 156.96875 221.535156 " fill-opacity="1" fill-rule="nonzero"/><path fill="#212121" d="M 184.15625 186.773438 L 227.9375 186.773438 L 227.9375 182.0625 L 224.011719 182.0625 C 224.011719 182.0625 214.664062 184.949219 184.15625 186.773438 " fill-opacity="1" fill-rule="nonzero"/><path fill="#212121" d="M 147.316406 186.773438 L 148.976562 186.773438 C 148.976562 186.773438 152.925781 183.886719 165.824219 182.0625 L 147.316406 182.0625 L 147.316406 186.773438 " fill-opacity="1" fill-rule="nonzero"/><path fill="#212121" d="M 219.464844 197.226562 L 216.363281 197.226562 C 216.363281 197.226562 208.980469 200.59375 184.882812 202.726562 L 219.464844 202.726562 L 219.464844 197.226562 " fill-opacity="1" fill-rule="nonzero"/><path fill="#212121" d="M 157.101562 202.726562 C 157.101562 202.726562 160.21875 199.355469 170.40625 197.226562 L 155.789062 197.226562 L 155.789062 202.726562 L 157.101562 202.726562 " fill-opacity="1" fill-rule="nonzero"/><path fill="#212121" d="M 135.082031 216.257812 C 143.824219 216.644531 152.566406 216.898438 161.304688 217.03125 C 165.675781 217.121094 170.046875 217.140625 174.417969 217.195312 L 187.535156 217.25 L 200.648438 217.199219 C 205.015625 217.140625 209.390625 217.125 213.761719 217.035156 C 222.5 216.902344 231.246094 216.644531 239.984375 216.257812 C 231.246094 215.875 222.5 215.613281 213.761719 215.484375 C 209.390625 215.390625 205.015625 215.375 200.648438 215.316406 L 187.535156 215.269531 L 174.417969 215.320312 C 170.046875 215.378906 165.675781 215.398438 161.304688 215.488281 C 152.566406 215.617188 143.824219 215.875 135.082031 216.257812 " fill-opacity="1" fill-rule="nonzero"/><path fill="#d72b2b" d="M 176.082031 141.597656 C 176.253906 140.835938 176.582031 140.117188 176.960938 139.441406 C 177.738281 138.089844 178.757812 136.910156 179.851562 135.828125 C 180.945312 134.738281 182.140625 133.777344 183.363281 132.851562 C 184.601562 131.945312 185.867188 131.109375 187.207031 130.320312 L 187.535156 130.128906 L 187.859375 130.320312 C 189.195312 131.109375 190.464844 131.941406 191.703125 132.855469 C 192.925781 133.777344 194.121094 134.742188 195.210938 135.828125 C 196.304688 136.910156 197.328125 138.089844 198.105469 139.441406 C 198.480469 140.117188 198.808594 140.835938 198.984375 141.597656 C 199.160156 142.355469 199.171875 143.160156 198.945312 143.886719 C 199.109375 142.355469 198.414062 140.960938 197.558594 139.789062 C 196.699219 138.59375 195.625 137.5625 194.511719 136.585938 C 193.378906 135.625 192.203125 134.710938 190.96875 133.871094 C 189.855469 133.09375 188.699219 132.347656 187.535156 131.667969 C 186.367188 132.347656 185.210938 133.09375 184.097656 133.871094 C 182.867188 134.710938 181.6875 135.625 180.554688 136.585938 C 179.445312 137.5625 178.371094 138.597656 177.511719 139.789062 C 176.652344 140.960938 175.960938 142.355469 176.121094 143.886719 C 175.894531 143.160156 175.90625 142.355469 176.082031 141.597656 Z M 173.308594 148.585938 C 174.082031 152.027344 176.222656 155.292969 177.046875 156.464844 C 177.941406 156.355469 179.808594 156.15625 182.421875 156.027344 C 180.871094 152.703125 177.800781 145.382812 180.84375 145.382812 C 180.84375 145.382812 178.636719 138.390625 187.535156 138.390625 C 196.425781 138.390625 194.222656 145.382812 194.222656 145.382812 C 197.265625 145.382812 194.199219 152.703125 192.644531 156.027344 C 195.257812 156.15625 197.121094 156.355469 198.019531 156.464844 C 198.84375 155.292969 200.984375 152.027344 201.757812 148.585938 C 202.394531 145.746094 201.636719 144.535156 201.144531 144.289062 L 200.367188 143.984375 L 200.574219 143.179688 C 201.636719 138.03125 191.949219 131.160156 187.535156 128.578125 C 183.117188 131.160156 173.429688 138.039062 174.492188 143.179688 L 174.664062 144 L 173.886719 144.308594 C 173.429688 144.535156 172.671875 145.746094 173.308594 148.585938 " fill-opacity="1" fill-rule="nonzero"/><path fill="#212121" d="M 177.511719 139.789062 C 178.371094 138.597656 179.445312 137.5625 180.554688 136.585938 C 181.6875 135.625 182.867188 134.710938 184.097656 133.871094 C 185.210938 133.09375 186.367188 132.347656 187.535156 131.667969 C 188.699219 132.347656 189.855469 133.09375 190.96875 133.871094 C 192.203125 134.710938 193.378906 135.625 194.511719 136.585938 C 195.625 137.5625 196.699219 138.59375 197.558594 139.789062 C 198.414062 140.960938 199.109375 142.355469 198.945312 143.886719 C 199.171875 143.160156 199.160156 142.355469 198.984375 141.597656 C 198.808594 140.835938 198.480469 140.117188 198.105469 139.441406 C 197.328125 138.089844 196.304688 136.910156 195.210938 135.828125 C 194.121094 134.742188 192.925781 133.777344 191.703125 132.855469 C 190.464844 131.941406 189.195312 131.109375 187.859375 130.320312 L 187.535156 130.128906 L 187.207031 130.320312 C 185.867188 131.109375 184.601562 131.945312 183.363281 132.851562 C 182.140625 133.777344 180.945312 134.738281 179.851562 135.828125 C 178.757812 136.910156 177.738281 138.089844 176.960938 139.441406 C 176.582031 140.117188 176.253906 140.835938 176.082031 141.597656 C 175.90625 142.355469 175.894531 143.160156 176.121094 143.886719 C 175.960938 142.355469 176.652344 140.960938 177.511719 139.789062 " fill-opacity="1" fill-rule="nonzero"/><path fill="#ffc538" d="M 187.535156 66.160156 C 188.597656 66.160156 189.457031 65.300781 189.457031 64.242188 C 189.457031 63.183594 188.597656 64.242188 187.535156 64.242188 C 186.472656 64.242188 185.613281 63.183594 185.613281 64.242188 C 185.613281 65.300781 186.472656 66.160156 187.535156 66.160156 " fill-opacity="1" fill-rule="nonzero"/><path fill="#ffffff" d="M 183.25 141.195312 C 184.417969 140.273438 186 140.023438 187.535156 140.03125 C 189.066406 140.023438 190.648438 140.273438 191.816406 141.191406 C 192.976562 142.152344 193.265625 143.863281 192.984375 145.398438 C 193.261719 144.652344 193.347656 143.835938 193.257812 143.023438 C 193.144531 142.210938 192.765625 141.414062 192.160156 140.820312 C 191.546875 140.21875 190.75 139.898438 189.964844 139.65625 C 189.5625 139.570312 189.15625 139.496094 188.75 139.441406 L 187.535156 139.371094 L 186.316406 139.441406 C 185.910156 139.496094 185.507812 139.570312 185.105469 139.652344 C 184.316406 139.898438 183.519531 140.21875 182.90625 140.820312 C 182.300781 141.414062 181.921875 142.210938 181.808594 143.023438 C 181.714844 143.835938 181.808594 144.652344 182.082031 145.398438 C 181.804688 143.863281 182.09375 142.152344 183.25 141.195312 " fill-opacity="1" fill-rule="nonzero"/><g fill="#000000" fill-opacity="1"><g transform="translate(14.19141, 282.895294)"><g><path d="M 3.457031 0 L 17.722656 0 L 17.722656 -2.007812 L 5.574219 -2.007812 L 5.574219 -9.972656 L 16.503906 -9.972656 L 16.503906 -11.933594 L 5.574219 -11.933594 L 5.574219 -19.855469 L 17.722656 -19.855469 L 17.722656 -21.816406 L 3.457031 -21.816406 Z M 3.457031 0 "/></g></g></g><g fill="#000000" fill-opacity="1"><g transform="translate(33.859523, 282.895294)"><g><path d="M 8.445312 0.230469 C 11.285156 0.230469 13.523438 -1.328125 14.464844 -4.015625 L 12.597656 -4.722656 C 11.980469 -2.808594 10.4375 -1.621094 8.429688 -1.621094 C 5.09375 -1.621094 3.566406 -4.507812 3.566406 -7.6875 C 3.566406 -10.824219 5.09375 -13.804688 8.414062 -13.804688 C 10.390625 -13.804688 11.949219 -12.597656 12.675781 -10.667969 L 14.621094 -11.425781 C 13.480469 -14.203125 11.222656 -15.671875 8.414062 -15.671875 C 3.78125 -15.671875 1.496094 -11.734375 1.496094 -7.6875 C 1.496094 -3.320312 4.015625 0.230469 8.445312 0.230469 Z M 8.445312 0.230469 "/></g></g></g><g fill="#000000" fill-opacity="1"><g transform="translate(49.54461, 282.895294)"><g><path d="M 8.863281 0.230469 C 13.261719 0.230469 16.367188 -3.320312 16.367188 -7.75 C 16.367188 -12.152344 13.261719 -15.671875 8.863281 -15.671875 C 4.476562 -15.671875 1.421875 -12.152344 1.421875 -7.75 C 1.421875 -3.304688 4.476562 0.230469 8.863281 0.230469 Z M 8.863281 -1.542969 C 5.527344 -1.542969 3.535156 -4.324219 3.535156 -7.75 C 3.535156 -11.164062 5.527344 -13.878906 8.863281 -13.878906 C 12.226562 -13.878906 14.25 -11.148438 14.25 -7.75 C 14.25 -4.339844 12.226562 -1.542969 8.863281 -1.542969 Z M 8.863281 -1.542969 "/></g></g></g><g fill="#000000" fill-opacity="1"><g transform="translate(67.329278, 282.895294)"><g/></g></g><g fill="#000000" fill-opacity="1"><g transform="translate(75.403393, 282.895294)"><g><path d="M 3.457031 0 L 5.574219 0 L 5.574219 -9.988281 L 17.03125 -9.988281 L 17.03125 0 L 19.144531 0 L 19.144531 -21.816406 L 17.03125 -21.816406 L 17.03125 -11.949219 L 5.574219 -11.949219 L 5.574219 -21.816406 L 3.457031 -21.816406 Z M 3.457031 0 "/></g></g></g><g fill="#000000" fill-opacity="1"><g transform="translate(98.00474, 282.895294)"><g><path d="M 2.71875 -18.652344 L 4.847656 -18.652344 L 4.847656 -21.816406 L 2.71875 -21.816406 Z M 2.761719 0 L 4.785156 0 L 4.785156 -15.425781 L 2.761719 -15.425781 Z M 2.761719 0 "/></g></g></g><g fill="#000000" fill-opacity="1"><g transform="translate(105.553961, 282.895294)"><g><path d="M 2.777344 0 L 4.816406 0 L 4.816406 -9.140625 C 4.816406 -11.828125 6.4375 -13.757812 9.015625 -13.757812 C 11.546875 -13.757812 12.644531 -12.058594 12.644531 -9.324219 L 12.644531 0 L 14.683594 0 L 14.683594 -9.140625 C 14.683594 -11.828125 16.304688 -13.757812 18.867188 -13.757812 C 21.492188 -13.757812 22.511719 -11.964844 22.511719 -8.769531 L 22.511719 0 L 24.546875 0 L 24.546875 -9.015625 C 24.546875 -12.96875 22.941406 -15.671875 19.238281 -15.671875 C 16.953125 -15.671875 15.054688 -14.511719 14.140625 -12.257812 C 13.449219 -14.621094 11.65625 -15.671875 9.386719 -15.671875 C 7.316406 -15.671875 5.589844 -14.714844 4.738281 -12.738281 L 4.738281 -15.425781 L 2.761719 -15.425781 Z M 2.777344 0 "/></g></g></g><g fill="#000000" fill-opacity="1"><g transform="translate(132.462533, 282.895294)"><g><path d="M 7.921875 -15.671875 C 5.1875 -15.671875 3.398438 -14.558594 1.898438 -12.492188 L 3.457031 -11.347656 C 4.523438 -12.9375 5.882812 -13.863281 7.9375 -13.863281 C 11.023438 -13.863281 12.210938 -12.320312 12.210938 -9.0625 L 12.210938 -8.878906 L 7.765625 -8.878906 C 3.78125 -8.878906 1.296875 -7.613281 1.296875 -4.476562 C 1.296875 -1.511719 3.488281 0.230469 6.625 0.230469 C 8.925781 0.230469 11.070312 -0.894531 12.226562 -3.132812 L 12.367188 0 L 14.066406 0 L 14.066406 -9.417969 C 14.066406 -13.292969 11.871094 -15.671875 7.921875 -15.671875 Z M 7.007812 -1.511719 C 4.695312 -1.511719 3.382812 -2.65625 3.382812 -4.414062 C 3.382812 -6.269531 4.832031 -7.363281 7.875 -7.363281 L 12.210938 -7.363281 L 12.210938 -5.789062 C 11.503906 -3.257812 9.695312 -1.511719 7.007812 -1.511719 Z M 7.007812 -1.511719 "/></g></g></g><g fill="#000000" fill-opacity="1"><g transform="translate(148.87321, 282.895294)"><g><path d="M 5.527344 0.230469 C 6.191406 0.230469 7.023438 0.125 7.703125 -0.015625 L 7.671875 -1.761719 C 7.210938 -1.667969 6.746094 -1.605469 6.421875 -1.605469 C 4.878906 -1.605469 4.722656 -2.59375 4.722656 -3.78125 L 4.722656 -21.816406 L 2.6875 -21.816406 L 2.6875 -3.257812 C 2.6875 -1.082031 3.335938 0.230469 5.527344 0.230469 Z M 5.527344 0.230469 "/></g></g></g><g fill="#000000" fill-opacity="1"><g transform="translate(157.364154, 282.895294)"><g><path d="M 7.921875 -15.671875 C 5.1875 -15.671875 3.398438 -14.558594 1.898438 -12.492188 L 3.457031 -11.347656 C 4.523438 -12.9375 5.882812 -13.863281 7.9375 -13.863281 C 11.023438 -13.863281 12.210938 -12.320312 12.210938 -9.0625 L 12.210938 -8.878906 L 7.765625 -8.878906 C 3.78125 -8.878906 1.296875 -7.613281 1.296875 -4.476562 C 1.296875 -1.511719 3.488281 0.230469 6.625 0.230469 C 8.925781 0.230469 11.070312 -0.894531 12.226562 -3.132812 L 12.367188 0 L 14.066406 0 L 14.066406 -9.417969 C 14.066406 -13.292969 11.871094 -15.671875 7.921875 -15.671875 Z M 7.007812 -1.511719 C 4.695312 -1.511719 3.382812 -2.65625 3.382812 -4.414062 C 3.382812 -6.269531 4.832031 -7.363281 7.875 -7.363281 L 12.210938 -7.363281 L 12.210938 -5.789062 C 11.503906 -3.257812 9.695312 -1.511719 7.007812 -1.511719 Z M 7.007812 -1.511719 "/></g></g></g><g fill="#000000" fill-opacity="1"><g transform="translate(173.774831, 282.895294)"><g><path d="M 4.476562 6.609375 L 6.699219 6.609375 L 15.160156 -15.425781 L 12.9375 -15.425781 L 8.183594 -2.578125 L 2.777344 -15.425781 L 0.539062 -15.425781 L 7.101562 -0.183594 Z M 4.476562 6.609375 "/></g></g></g><g fill="#000000" fill-opacity="1"><g transform="translate(189.521672, 282.895294)"><g><path d="M 7.921875 -15.671875 C 5.1875 -15.671875 3.398438 -14.558594 1.898438 -12.492188 L 3.457031 -11.347656 C 4.523438 -12.9375 5.882812 -13.863281 7.9375 -13.863281 C 11.023438 -13.863281 12.210938 -12.320312 12.210938 -9.0625 L 12.210938 -8.878906 L 7.765625 -8.878906 C 3.78125 -8.878906 1.296875 -7.613281 1.296875 -4.476562 C 1.296875 -1.511719 3.488281 0.230469 6.625 0.230469 C 8.925781 0.230469 11.070312 -0.894531 12.226562 -3.132812 L 12.367188 0 L 14.066406 0 L 14.066406 -9.417969 C 14.066406 -13.292969 11.871094 -15.671875 7.921875 -15.671875 Z M 7.007812 -1.511719 C 4.695312 -1.511719 3.382812 -2.65625 3.382812 -4.414062 C 3.382812 -6.269531 4.832031 -7.363281 7.875 -7.363281 L 12.210938 -7.363281 L 12.210938 -5.789062 C 11.503906 -3.257812 9.695312 -1.511719 7.007812 -1.511719 Z M 7.007812 -1.511719 "/></g></g></g><g fill="#000000" fill-opacity="1"><g transform="translate(205.93235, 282.895294)"><g><path d="M 2.761719 0 L 4.800781 0 L 4.800781 -9.125 C 4.800781 -12.121094 6.484375 -13.773438 9.09375 -13.773438 C 11.625 -13.773438 12.953125 -12.105469 12.953125 -9.292969 L 12.953125 0 L 14.992188 0 L 14.992188 -9.773438 C 14.929688 -13.109375 13.230469 -15.671875 9.632812 -15.671875 C 7.597656 -15.671875 5.773438 -14.683594 4.800781 -12.800781 L 4.800781 -15.425781 L 2.761719 -15.425781 Z M 2.761719 0 "/></g></g></g><g fill="#000000" fill-opacity="1"><g transform="translate(223.284751, 282.895294)"><g/></g></g><g fill="#000000" fill-opacity="1"><g transform="translate(231.358877, 282.895294)"><g><path d="M 8.167969 0.230469 C 12.953125 0.230469 15.039062 -2.917969 15.039062 -7.953125 L 15.039062 -21.816406 L 4.046875 -21.816406 L 4.046875 -19.855469 L 12.921875 -19.855469 L 12.921875 -7.921875 C 12.921875 -3.875 11.59375 -1.746094 8.167969 -1.746094 C 5.203125 -1.746094 3.503906 -3.738281 3.304688 -6.59375 L 1.21875 -6.375 C 1.496094 -2.5625 4.0625 0.230469 8.167969 0.230469 Z M 8.167969 0.230469 "/></g></g></g><g fill="#000000" fill-opacity="1"><g transform="translate(249.436879, 282.895294)"><g><path d="M 8.863281 0.230469 C 13.261719 0.230469 16.367188 -3.320312 16.367188 -7.75 C 16.367188 -12.152344 13.261719 -15.671875 8.863281 -15.671875 C 4.476562 -15.671875 1.421875 -12.152344 1.421875 -7.75 C 1.421875 -3.304688 4.476562 0.230469 8.863281 0.230469 Z M 8.863281 -1.542969 C 5.527344 -1.542969 3.535156 -4.324219 3.535156 -7.75 C 3.535156 -11.164062 5.527344 -13.878906 8.863281 -13.878906 C 12.226562 -13.878906 14.25 -11.148438 14.25 -7.75 C 14.25 -4.339844 12.226562 -1.542969 8.863281 -1.542969 Z M 8.863281 -1.542969 "/></g></g></g><g fill="#000000" fill-opacity="1"><g transform="translate(267.221546, 282.895294)"><g><path d="M 7.71875 0.230469 C 9.757812 0.230469 11.59375 -0.742188 12.550781 -2.625 L 12.550781 0 L 14.574219 0 L 14.574219 -15.425781 L 12.550781 -15.425781 L 12.550781 -6.316406 C 12.550781 -3.304688 10.855469 -1.667969 8.261719 -1.667969 C 5.726562 -1.667969 4.398438 -3.320312 4.398438 -6.128906 L 4.398438 -15.425781 L 2.378906 -15.425781 L 2.378906 -5.667969 C 2.4375 -2.332031 4.105469 0.230469 7.71875 0.230469 Z M 7.71875 0.230469 "/></g></g></g><g fill="#000000" fill-opacity="1"><g transform="translate(284.55852, 282.895294)"><g><path d="M 2.761719 0 L 4.738281 0 L 4.738281 -7.875 C 4.738281 -12.058594 7.179688 -13.679688 9.234375 -13.679688 C 9.851562 -13.679688 10.453125 -13.523438 10.992188 -13.230469 L 11.917969 -14.929688 C 11.253906 -15.425781 10.375 -15.671875 9.511719 -15.671875 C 7.671875 -15.671875 5.527344 -14.574219 4.753906 -12.195312 L 4.753906 -15.425781 L 2.761719 -15.425781 Z M 2.761719 0 "/></g></g></g><g fill="#000000" fill-opacity="1"><g transform="translate(296.800905, 282.895294)"><g><path d="M 2.761719 0 L 4.800781 0 L 4.800781 -9.125 C 4.800781 -12.121094 6.484375 -13.773438 9.09375 -13.773438 C 11.625 -13.773438 12.953125 -12.105469 12.953125 -9.292969 L 12.953125 0 L 14.992188 0 L 14.992188 -9.773438 C 14.929688 -13.109375 13.230469 -15.671875 9.632812 -15.671875 C 7.597656 -15.671875 5.773438 -14.683594 4.800781 -12.800781 L 4.800781 -15.425781 L 2.761719 -15.425781 Z M 2.761719 0 "/></g></g></g><g fill="#000000" fill-opacity="1"><g transform="translate(314.153306, 282.895294)"><g><path d="M 8.707031 0.230469 C 11.195312 0.230469 12.9375 -0.523438 14.667969 -2.332031 L 13.246094 -3.582031 C 11.859375 -2.128906 10.574219 -1.621094 8.722656 -1.621094 C 5.621094 -1.621094 3.828125 -3.722656 3.675781 -7.164062 L 15.039062 -7.164062 C 15.101562 -7.394531 15.144531 -8.011719 15.144531 -8.539062 C 15.144531 -11.59375 13.492188 -15.671875 8.460938 -15.671875 C 3.96875 -15.671875 1.511719 -11.996094 1.511719 -7.640625 C 1.511719 -3.210938 4.0625 0.230469 8.707031 0.230469 Z M 3.675781 -8.675781 C 3.9375 -11.765625 5.636719 -13.925781 8.445312 -13.925781 C 11.503906 -13.925781 12.890625 -11.734375 13.078125 -9.648438 C 13.125 -9.339844 13.125 -9 13.109375 -8.675781 Z M 3.675781 -8.675781 "/></g></g></g><g fill="#000000" fill-opacity="1"><g transform="translate(330.733803, 282.895294)"><g><path d="M 4.476562 6.609375 L 6.699219 6.609375 L 15.160156 -15.425781 L 12.9375 -15.425781 L 8.183594 -2.578125 L 2.777344 -15.425781 L 0.539062 -15.425781 L 7.101562 -0.183594 Z M 4.476562 6.609375 "/></g></g></g><g fill="#000000" fill-opacity="1"><g transform="translate(346.480643, 282.895294)"><g><path d="M 7.347656 0.230469 C 10.359375 0.230469 12.832031 -1.328125 12.832031 -4.414062 C 12.832031 -10.328125 3.828125 -7.859375 3.828125 -11.6875 C 3.828125 -13.0625 5.09375 -14.019531 7.085938 -14.019531 C 8.96875 -14.019531 10.25 -12.984375 10.992188 -11.59375 L 12.566406 -12.445312 C 11.488281 -14.480469 9.589844 -15.671875 7.148438 -15.671875 C 4.199219 -15.671875 1.867188 -14.171875 1.867188 -11.425781 C 1.867188 -5.851562 10.824219 -8.507812 10.824219 -4.324219 C 10.824219 -2.703125 9.589844 -1.480469 7.257812 -1.480469 C 4.863281 -1.480469 3.335938 -2.902344 2.75 -4.554688 L 1.097656 -3.828125 C 1.882812 -1.480469 4.308594 0.230469 7.347656 0.230469 Z M 7.347656 0.230469 "/></g></g></g></svg>