<?xml version="1.0" encoding="UTF-8"?>
<svg version="1.1" xmlns="http://www.w3.org/2000/svg" width="500" height="500">
<path d="M0 0 C165 0 330 0 500 0 C500 165 500 330 500 500 C335 500 170 500 0 500 C0 335 0 170 0 0 Z " fill="#041000" transform="translate(0,0)"/>
<path d="M0 0 C1.35683751 1.6475884 2.68456721 3.31916921 4 5 C5.07277975 6.09418184 6.17945755 7.15584837 7.3125 8.1875 C8.11107422 8.92033203 8.11107422 8.92033203 8.92578125 9.66796875 C11.06918559 11.20897006 11.06918559 11.20897006 14.26171875 11.75390625 C19.18469985 13.39489995 21.87935551 16.13682075 25.5 19.75 C26.75908092 20.97533236 28.01949072 22.19930079 29.28125 23.421875 C29.89097656 24.01677734 30.50070312 24.61167969 31.12890625 25.22460938 C33.98765377 27.93713704 36.98318756 30.46525553 40 33 C42.77438124 31.68779266 45.20790172 30.22517631 47.671875 28.3984375 C48.33574219 27.90859375 48.99960937 27.41875 49.68359375 26.9140625 C50.36550781 26.40617187 51.04742187 25.89828125 51.75 25.375 C52.44738281 24.859375 53.14476562 24.34375 53.86328125 23.8125 C55.57755267 22.54440881 57.28905156 21.2725711 59 20 C61.5171259 21.16215129 62.95252828 21.94598046 64.8125 24.0625 C66.90443723 26.31678268 66.90443723 26.31678268 70.125 26.1875 C76.21646042 27.4647417 79.59481842 31.78746484 84 36 C90.73543686 42.7376316 90.73543686 42.7376316 99.375 45.75 C104.08072656 46.07453287 104.92288768 47.53824864 108 51 C110.60650073 53.08324448 113.29506982 55.0468122 116 57 C115.34 57.33 114.68 57.66 114 58 C111.20237778 56.40512911 108.54997173 54.68086838 105.875 52.89257812 C102.51901259 50.7203808 101.12226547 50 97 50 C98.98 51.65 100.96 53.3 103 55 C102.01 55.495 102.01 55.495 101 56 C100.53625977 55.67725098 100.07251953 55.35450195 99.59472656 55.02197266 C97.4816813 53.55361212 95.36587795 52.08927539 93.25 50.625 C92.15558594 49.86316406 92.15558594 49.86316406 91.0390625 49.0859375 C90.33007812 48.59609375 89.62109375 48.10625 88.890625 47.6015625 C88.24125977 47.15119629 87.59189453 46.70083008 86.92285156 46.23681641 C85.00427887 45.00275226 83.05780622 43.98086094 81 43 C80.01 43.99 80.01 43.99 79 45 C75.76984917 44.95084553 74.75820804 43.76516872 72.421875 41.49609375 C71.52248809 40.48428347 70.63206846 39.46444308 69.75 38.4375 C69.29109375 37.91736328 68.8321875 37.39722656 68.359375 36.86132812 C67.2317857 35.58104445 66.11482685 34.29141202 65 33 C61.05308794 34.88509233 57.01711964 36.96576071 55 41 C55.67675781 41.24234375 56.35351562 41.4846875 57.05078125 41.734375 C60.62699661 43.26906874 63.87835937 45.22075839 67.1875 47.25 C68.51561756 48.05600185 69.84374258 48.86199139 71.171875 49.66796875 C71.81962891 50.06290527 72.46738281 50.4578418 73.13476562 50.86474609 C75.72818377 52.44320086 78.33251395 54.00322978 80.9375 55.5625 C82.29166667 56.375 83.64583333 57.1875 85 58 C82 59 82 59 79.37109375 57.78515625 C77.91896484 56.93244141 77.91896484 56.93244141 76.4375 56.0625 C72.93332317 53.78203181 72.93332317 53.78203181 69 53 C68.01 53.33 67.02 53.66 66 54 C63.43359375 52.3828125 63.43359375 52.3828125 60.4375 50.125 C55.47765944 46.66269584 52.2492245 45.31329397 46.26953125 45.20703125 C42.52093338 44.86507654 40.0804567 43.07595995 37 41 C37.86625 41.6290625 38.7325 42.258125 39.625 42.90625 C48.56983451 49.67998237 48.56983451 49.67998237 49.796875 53.4453125 C49.75 55.625 49.75 55.625 49 59 C45.91624465 58.38853634 43.81921149 57.39908159 41.25 55.6015625 C40.5590625 55.12203125 39.868125 54.6425 39.15625 54.1484375 C38.4446875 53.64570313 37.733125 53.14296875 37 52.625 C36.2884375 52.13 35.576875 51.635 34.84375 51.125 C31.51953698 48.80549315 28.21902289 46.4645644 25 44 C25.5053125 44.84304687 26.010625 45.68609375 26.53125 46.5546875 C27.50578125 48.19824219 27.50578125 48.19824219 28.5 49.875 C29.47453125 51.51082031 29.47453125 51.51082031 30.46875 53.1796875 C32 56 32 56 32 58 C31.34 58 30.68 58 30 58 C28.5546875 56.53125 28.5546875 56.53125 26.875 54.5 C24.42938388 51.61064322 21.92940538 48.9209252 19.1875 46.3125 C13.82923602 41.05950644 9.46786091 35.00597695 5 29 C2.3094472 30.22007944 2.3094472 30.22007944 0 32 C0.08701172 33.11761719 0.08701172 33.11761719 0.17578125 34.2578125 C0.33498089 37.59645631 0.18360794 39.85657745 -1 43 C-5.31196456 46.26970794 -9.96797847 48.07149751 -15 50 C-15.99386719 50.40992188 -16.98773438 50.81984375 -18.01171875 51.2421875 C-19.63729176 51.90796778 -21.27043357 52.55591437 -22.9140625 53.17578125 C-25.0444017 53.9637947 -25.0444017 53.9637947 -27.0859375 55.16796875 C-29 56 -29 56 -32 55 C-28.2087859 52.85336633 -24.41695268 50.70782868 -20.625 48.5625 C-19.54476562 47.95083984 -18.46453125 47.33917969 -17.3515625 46.70898438 C-16.3203125 46.12568359 -15.2890625 45.54238281 -14.2265625 44.94140625 C-12.79691162 44.13231812 -12.79691162 44.13231812 -11.33837891 43.30688477 C-9.90865767 42.50783509 -8.46494593 41.73247296 -7 41 C-6.5316735 38.41394668 -6.5316735 38.41394668 -6.375 35.4375 C-6.26285156 33.91962891 -6.26285156 33.91962891 -6.1484375 32.37109375 C-6.07496094 31.19740234 -6.07496094 31.19740234 -6 30 C-5.34 30 -4.68 30 -4 30 C-2.87137825 24.63904667 -2.90311779 19.44693314 -3 14 C-4.99983534 14.79117904 -4.99983534 14.79117904 -7 16 C-7.33 16.99 -7.66 17.98 -8 19 C-8.66 19 -9.32 19 -10 19 C-8.80523076 16.17599997 -7.46318334 14.37153171 -5.4375 12 C-3.21170453 9.26055942 -2.62562859 8.26170409 -2 5 C-4.20922483 6.7280375 -6.41739506 8.45739512 -8.625 10.1875 C-9.24246094 10.67025391 -9.85992187 11.15300781 -10.49609375 11.65039062 C-11.73336557 12.62067221 -12.96686227 13.59578702 -14.1965332 14.57568359 C-15.37093261 15.50318409 -16.55918931 16.4134856 -17.76245117 17.30322266 C-20.24665057 19.20213947 -21.82914114 20.49608446 -22.84765625 23.5 C-22.91855469 24.325 -22.98945313 25.15 -23.0625 26 C-23.78649631 31.00079929 -24.96563829 32.97422872 -29 36 C-29.66 36 -30.32 36 -31 36 C-31 36.66 -31 37.32 -31 38 C-31.66 38 -32.32 38 -33 38 C-33 35.03 -33 32.06 -33 29 C-33.55429688 29.433125 -34.10859375 29.86625 -34.6796875 30.3125 C-35.40414062 30.869375 -36.12859375 31.42625 -36.875 32 C-37.59429687 32.556875 -38.31359375 33.11375 -39.0546875 33.6875 C-41 35 -41 35 -43 35 C-43.07347656 35.90492188 -43.07347656 35.90492188 -43.1484375 36.828125 C-43.22320312 37.62734375 -43.29796875 38.4265625 -43.375 39.25 C-43.47941406 40.43335938 -43.47941406 40.43335938 -43.5859375 41.640625 C-44.15650769 44.89179855 -45.06012705 47.19602953 -47.60400391 49.37207031 C-48.22194824 49.77006836 -48.83989258 50.16806641 -49.4765625 50.578125 C-50.146875 51.01640625 -50.8171875 51.4546875 -51.5078125 51.90625 C-52.20648438 52.3496875 -52.90515625 52.793125 -53.625 53.25 C-54.68460938 53.93835938 -54.68460938 53.93835938 -55.765625 54.640625 C-57.50497433 55.76885159 -59.25178241 56.88556445 -61 58 C-61.66 57.67 -62.32 57.34 -63 57 C-62.44570312 56.64808594 -61.89140625 56.29617187 -61.3203125 55.93359375 C-56.16970072 52.50190895 -56.16970072 52.50190895 -53.5 47.125 C-53.335 46.09375 -53.17 45.0625 -53 44 C-54.3303125 44.680625 -54.3303125 44.680625 -55.6875 45.375 C-58.42931841 46.72004299 -61.15024331 47.91038715 -64 49 C-63.21625 48.236875 -62.4325 47.47375 -61.625 46.6875 C-58.92742283 44.09108195 -58.92742283 44.09108195 -57 41 C-57.72445312 41.66128906 -58.44890625 42.32257813 -59.1953125 43.00390625 C-60.64550781 44.27041016 -60.64550781 44.27041016 -62.125 45.5625 C-63.07632813 46.40941406 -64.02765625 47.25632813 -65.0078125 48.12890625 C-68.72529541 50.45354635 -69.83278454 49.74988453 -74 49 C-77.31873554 50.46313053 -77.31873554 50.46313053 -80.5 52.6875 C-82.12421875 53.74517578 -82.12421875 53.74517578 -83.78125 54.82421875 C-84.8434375 55.54222656 -85.905625 56.26023438 -87 57 C-88.11632812 57.65097656 -89.23265625 58.30195313 -90.3828125 58.97265625 C-93.18732666 60.71262997 -93.18732666 60.71262997 -93.5859375 63.359375 C-93.48152344 64.54273438 -93.48152344 64.54273438 -93.375 65.75 C-93.32085937 66.54921875 -93.26671875 67.3484375 -93.2109375 68.171875 C-93.10652344 69.07679688 -93.10652344 69.07679688 -93 70 C-93.99 70 -94.98 70 -96 70 C-96 78.25 -96 86.5 -96 95 C-95.01 95 -94.02 95 -93 95 C-93 97.64 -93 100.28 -93 103 C-99.27 103 -105.54 103 -112 103 C-112 100.36 -112 97.72 -112 95 C-111.01 95 -110.02 95 -109 95 C-109.33 89.72 -109.66 84.44 -110 79 C-111.98 86.92 -113.96 94.84 -116 103 C-120.29 103 -124.58 103 -129 103 C-131.61844465 95.40651053 -133.82363608 87.72984426 -136 80 C-136.33 84.95 -136.66 89.9 -137 95 C-136.01 95 -135.02 95 -134 95 C-134 97.64 -134 100.28 -134 103 C-139.28 103 -144.56 103 -150 103 C-150 100.36 -150 97.72 -150 95 C-149.01 95 -148.02 95 -147 95 C-147 86.75 -147 78.5 -147 70 C-147.99 70 -148.98 70 -150 70 C-150 67.36 -150 64.72 -150 62 C-142.41 62 -134.82 62 -127 62 C-124.5625 70.375 -124.5625 70.375 -123.79907227 73.00927734 C-123.59854248 73.6945752 -123.3980127 74.37987305 -123.19140625 75.0859375 C-122.98717041 75.7876709 -122.78293457 76.4894043 -122.57250977 77.21240234 C-122.02623679 79.07510758 -122.02623679 79.07510758 -121 81 C-120.72285156 79.79601562 -120.44570312 78.59203125 -120.16015625 77.3515625 C-119.79440321 75.77601093 -119.42851055 74.20049177 -119.0625 72.625 C-118.88009766 71.8309375 -118.69769531 71.036875 -118.50976562 70.21875 C-118.33251953 69.45820313 -118.15527344 68.69765625 -117.97265625 67.9140625 C-117.81031494 67.2123291 -117.64797363 66.5105957 -117.48071289 65.78759766 C-117 64 -117 64 -116 62 C-114.16888672 62.08314453 -114.16888672 62.08314453 -112.30078125 62.16796875 C-103.49716922 62.30338134 -96.6270487 62.12517765 -89.9375 55.9375 C-88.41123017 54.45508573 -86.91769888 52.95004498 -85.44335938 51.41601562 C-82.52310281 48.55108192 -79.06262364 46.30662563 -75.73046875 43.94921875 C-73.66711641 42.08338393 -73.66711641 42.08338393 -74.140625 39.19140625 C-73.95431792 34.96327064 -72.38753801 33.78774582 -69.42773438 30.94921875 C-68.50444336 30.10810547 -68.50444336 30.10810547 -67.5625 29.25 C-66.35369637 28.11125349 -65.14658141 26.97071095 -63.94140625 25.828125 C-63.40201416 25.3321582 -62.86262207 24.83619141 -62.30688477 24.32519531 C-60.8770426 23.01210235 -60.8770426 23.01210235 -60 21 C-63.76576104 23.0803128 -66.60487158 25.37844885 -69.609375 28.44921875 C-70.44597656 29.29677734 -71.28257812 30.14433594 -72.14453125 31.01757812 C-73.43423828 32.33918945 -73.43423828 32.33918945 -74.75 33.6875 C-76.47179599 35.44352905 -78.19563731 37.19755585 -79.921875 38.94921875 C-80.68081055 39.72612061 -81.43974609 40.50302246 -82.22167969 41.3034668 C-84 43 -84 43 -85 43 C-85 41.35 -85 39.7 -85 38 C-85.85722656 38.66386719 -86.71445313 39.32773438 -87.59765625 40.01171875 C-90.52805014 42.2777301 -93.46687945 44.5324914 -96.41015625 46.78173828 C-97.70524632 47.77413685 -98.99417536 48.77457155 -100.28125 49.77734375 C-103.5714322 52.26662633 -104.72105851 53 -109 53 C-109 53.66 -109 54.32 -109 55 C-110.59915881 55.69906942 -112.20455045 56.38389468 -113.8125 57.0625 C-115.15248047 57.63677734 -115.15248047 57.63677734 -116.51953125 58.22265625 C-119 59 -119 59 -122 58 C-120.89785156 57.36835938 -119.79570312 56.73671875 -118.66015625 56.0859375 C-107.16864484 49.36032011 -97.08459298 41.66336766 -87 33 C-78.95750614 26.11758847 -78.95750614 26.11758847 -74.4375 25.5625 C-69.67828115 24.78371873 -67.93952677 22.20172397 -64.89453125 18.6171875 C-64.26933594 18.08351562 -63.64414063 17.54984375 -63 17 C-59.8793076 17.39177868 -58.0689907 18.5082879 -55.72265625 20.5390625 C-54.82836914 21.28542969 -54.82836914 21.28542969 -53.91601562 22.046875 C-52.67873003 23.10032786 -51.44694025 24.16026935 -50.22070312 25.2265625 C-49.62322266 25.7215625 -49.02574219 26.2165625 -48.41015625 26.7265625 C-47.87527588 27.18627441 -47.34039551 27.64598633 -46.78930664 28.11962891 C-44.18835411 29.3993444 -42.71485418 28.87078245 -40 28 C-38.03643488 26.85339105 -38.03643488 26.85339105 -36.2421875 25.33203125 C-35.19333374 24.49599365 -35.19333374 24.49599365 -34.12329102 23.64306641 C-33.38135498 23.03897949 -32.63941895 22.43489258 -31.875 21.8125 C-30.27888706 20.54362915 -28.6811749 19.27676788 -27.08203125 18.01171875 C-26.25396973 17.35478027 -25.4259082 16.6978418 -24.57275391 16.02099609 C-20.28659847 12.6540579 -15.93488341 9.37879814 -11.5625 6.125 C-10.34699463 5.20618042 -10.34699463 5.20618042 -9.10693359 4.26879883 C-8.35105957 3.70829834 -7.59518555 3.14779785 -6.81640625 2.5703125 C-6.15068604 2.07289551 -5.48496582 1.57547852 -4.79907227 1.06298828 C-3 0 -3 0 0 0 Z " fill="#D1D2D1" transform="translate(254,187)"/>
<path d="M0 0 C1.5768457 0.00773438 1.5768457 0.00773438 3.18554688 0.015625 C11.08058225 0.20162087 17.29799122 1.37047706 24.125 5.5625 C24.125 6.2225 24.125 6.8825 24.125 7.5625 C24.84816406 7.80097656 25.57132812 8.03945312 26.31640625 8.28515625 C35.04256104 12.25379688 41.80220489 21.76924952 45.125 30.5625 C45.2734375 33.38671875 45.2734375 33.38671875 45.125 35.5625 C41.84411024 35.74821074 40.1575884 35.72705197 37.125 34.5625 C34.5924372 32.2592082 32.28987585 29.93607574 30.07104492 27.33666992 C28.60732222 25.62384549 28.60732222 25.62384549 26.125 23.5625 C22.43598129 23.85288923 20.2084539 24.92660673 17.3671875 27.23046875 C16.66803223 27.78790771 15.96887695 28.34534668 15.24853516 28.91967773 C14.50651855 29.52368408 13.76450195 30.12769043 13 30.75 C11.40241807 32.01736198 9.80341012 33.28292804 8.203125 34.546875 C7.37490234 35.20365234 6.54667969 35.86042969 5.69335938 36.53710938 C1.41698125 39.9094319 -2.9007933 43.22229424 -7.25 46.5 C-8.45293701 47.43138794 -8.45293701 47.43138794 -9.68017578 48.3815918 C-10.43282715 48.94531494 -11.18547852 49.50903809 -11.9609375 50.08984375 C-12.9516626 50.84382446 -12.9516626 50.84382446 -13.96240234 51.61303711 C-15.875 52.5625 -15.875 52.5625 -17.96948242 52.32373047 C-20.6648565 51.24696219 -22.58437982 49.60047269 -24.8125 47.75 C-25.64652344 47.06292969 -26.48054688 46.37585938 -27.33984375 45.66796875 C-28.17644531 44.97316406 -29.01304687 44.27835938 -29.875 43.5625 C-31.53918674 42.22607265 -33.20513233 40.8918222 -34.875 39.5625 C-38.08979335 40.96764147 -40.15543342 42.64989836 -42.5625 45.1875 C-43.65002953 46.32859094 -44.750082 47.45824979 -45.875 48.5625 C-46.205 48.5625 -46.535 48.5625 -46.875 48.5625 C-47.76593755 36.28736047 -45.25978207 27.60083355 -37.75 17.8125 C-27.43036608 5.95262221 -15.70549619 -0.21993693 0 0 Z " fill="#F08333" transform="translate(227.875,161.4375)"/>
<path d="M0 0 C14.88757396 -1.67485207 14.88757396 -1.67485207 19.734375 2.16796875 C21.76650825 5.02319473 23.41237822 7.87794996 25 11 C25.9869327 12.57078646 26.98517181 14.13458983 28 15.6875 C28.99 17.3271875 28.99 17.3271875 30 19 C30.33 15.37 30.66 11.74 31 8 C29.68 8 28.36 8 27 8 C27 5.36 27 2.72 27 0 C32.94 0 38.88 0 45 0 C45 2.64 45 5.28 45 8 C43.68 8 42.36 8 41 8 C41 18.89 41 29.78 41 41 C36.71 41 32.42 41 28 41 C24.55558724 37.34749377 22.55813656 34.74909944 20.1875 30.5 C19.57841797 29.49839844 18.96933594 28.49679687 18.34179688 27.46484375 C16.85217329 25.00168664 15.42013431 22.50386499 14 20 C13.67 24.29 13.34 28.58 13 33 C14.65 33 16.3 33 18 33 C18 35.64 18 38.28 18 41 C12.06 41 6.12 41 0 41 C0 38.69 0 36.38 0 34 C0.99 34 1.98 34 3 34 C3 25.42 3 16.84 3 8 C2.01 8 1.02 8 0 8 C0 5.36 0 2.72 0 0 Z " fill="#D5D5D5" transform="translate(434,249)"/>
<path d="M0 0 C6.27 0 12.54 0 19 0 C19 2.64 19 5.28 19 8 C18.01 8 17.02 8 16 8 C16 10.64 16 13.28 16 16 C19.3 16 22.6 16 26 16 C26 13.36 26 10.72 26 8 C25.01 8 24.02 8 23 8 C23 5.36 23 2.72 23 0 C29.27 0 35.54 0 42 0 C42 2.64 42 5.28 42 8 C41.01 8 40.02 8 39 8 C39 16.25 39 24.5 39 33 C39.99 33 40.98 33 42 33 C42 35.64 42 38.28 42 41 C35.73 41 29.46 41 23 41 C23 38.36 23 35.72 23 33 C24.32 33 25.64 33 27 33 C27 30.03 27 27.06 27 24 C23.04 24 19.08 24 15 24 C15 26.97 15 29.94 15 33 C16.32 33 17.64 33 19 33 C19 35.64 19 38.28 19 41 C12.73 41 6.46 41 0 41 C0 38.36 0 35.72 0 33 C0.99 33 1.98 33 3 33 C3 24.75 3 16.5 3 8 C2.01 8 1.02 8 0 8 C0 5.36 0 2.72 0 0 Z " fill="#D3D4D3" transform="translate(20,249)"/>
<path d="M0 0 C7.59 0 15.18 0 23 0 C23.721875 2.31 24.44375 4.62 25.1875 7 C25.43129395 7.77158447 25.67508789 8.54316895 25.92626953 9.33813477 C27.10564813 13.07521806 28.24219208 16.81774245 29.3046875 20.58984375 C29.62143433 21.68329102 29.62143433 21.68329102 29.94458008 22.79882812 C30.3512716 24.20642105 30.74473155 25.61791565 31.1237793 27.03320312 C31.71386709 29.18523588 31.71386709 29.18523588 33 32 C35.04328156 33.05246031 35.04328156 33.05246031 37 33 C37 35.64 37 38.28 37 41 C29.08 41 21.16 41 13 41 C13 38.36 13 35.72 13 33 C14.65 33 16.3 33 18 33 C18 31.68 18 30.36 18 29 C13.71 29 9.42 29 5 29 C5 30.32 5 31.64 5 33 C6.32 33 7.64 33 9 33 C9 35.64 9 38.28 9 41 C2.73 41 -3.54 41 -10 41 C-10 38.36 -10 35.72 -10 33 C-8.68 33 -7.36 33 -6 33 C-5.84144531 32.37996094 -5.68289062 31.75992187 -5.51953125 31.12109375 C-3.36781041 22.95406491 -0.72737074 14.98807004 2 7 C1.34 7 0.68 7 0 7 C0 4.69 0 2.38 0 0 Z " fill="#D4D4D4" transform="translate(181,249)"/>
<path d="M0 0 C7.59 0 15.18 0 23 0 C33 29.77272727 33 29.77272727 33 33 C34.32 33 35.64 33 37 33 C37 35.64 37 38.28 37 41 C29.08 41 21.16 41 13 41 C13 38.36 13 35.72 13 33 C14.98 33 16.96 33 19 33 C18.67 31.68 18.34 30.36 18 29 C14.04 29.33 10.08 29.66 6 30 C5.67 30.99 5.34 31.98 5 33 C6.32 33 7.64 33 9 33 C9 35.64 9 38.28 9 41 C2.73 41 -3.54 41 -10 41 C-10 38.36 -10 35.72 -10 33 C-8.35 33 -6.7 33 -5 33 C-4.89816406 32.03964844 -4.79632813 31.07929688 -4.69140625 30.08984375 C-4.01975558 25.38828909 -2.49091299 21.03532024 -0.9375 16.5625 C-0.65583984 15.73556641 -0.37417969 14.90863281 -0.08398438 14.05664062 C0.60517792 12.03587662 1.3018231 10.01766718 2 8 C1.34 8 0.68 8 0 8 C0 5.36 0 2.72 0 0 Z " fill="#D4D4D4" transform="translate(386,249)"/>
<path d="M0 0 C7.26 0 14.52 0 22 0 C24.12557289 4.25114579 25.62840584 7.61832196 26.9375 12.0625 C27.27652344 13.18269531 27.61554688 14.30289062 27.96484375 15.45703125 C28.66818294 17.86430914 29.34705651 20.27884248 30.00390625 22.69921875 C30.49697266 24.45685547 30.49697266 24.45685547 31 26.25 C31.28875 27.32765625 31.5775 28.4053125 31.875 29.515625 C32.73620814 32.17760159 32.73620814 32.17760159 35.125 32.859375 C35.74375 32.90578125 36.3625 32.9521875 37 33 C37 35.64 37 38.28 37 41 C29.08 41 21.16 41 13 41 C13 38.36 13 35.72 13 33 C14.65 33 16.3 33 18 33 C18 31.68 18 30.36 18 29 C13.71 29 9.42 29 5 29 C5 30.32 5 31.64 5 33 C6.32 33 7.64 33 9 33 C9 35.64 9 38.28 9 41 C2.73 41 -3.54 41 -10 41 C-10 38.36 -10 35.72 -10 33 C-8.68 33 -7.36 33 -6 33 C-5.84144531 32.37996094 -5.68289063 31.75992187 -5.51953125 31.12109375 C-3.36781041 22.95406491 -0.72737074 14.98807004 2 7 C1.34 7 0.68 7 0 7 C0 4.69 0 2.38 0 0 Z " fill="#D4D4D4" transform="translate(282,249)"/>
<path d="M0 0 C6.6 0 13.2 0 20 0 C20 2.64 20 5.28 20 8 C19.01 8.495 19.01 8.495 18 9 C18.495 9.94875 18.99 10.8975 19.5 11.875 C21 15 21 15 21 17 C21.66 17 22.32 17 23 17 C23.103125 16.46375 23.20625 15.9275 23.3125 15.375 C24.18092697 12.37497956 25.55620296 9.7620465 27 7 C26.01 7 25.02 7 24 7 C24 4.69 24 2.38 24 0 C29.28 0 34.56 0 40 0 C40 2.31 40 4.62 40 7 C39.01 7.33 38.02 7.66 37 8 C34.98617545 10.68167049 33.48152996 13.68509646 31.875 16.625 C31.19244141 17.81802734 31.19244141 17.81802734 30.49609375 19.03515625 C27.87590128 23.77016282 26.36275723 27.5876622 26 33 C26.99 33 27.98 33 29 33 C29 35.64 29 38.28 29 41 C22.73 41 16.46 41 10 41 C10 38.36 10 35.72 10 33 C11.32 33 12.64 33 14 33 C12.93636215 26.21335552 10.76913465 21.20754676 7 15.5 C6.32324219 14.42878906 6.32324219 14.42878906 5.6328125 13.3359375 C3.39779891 9.55431434 3.39779891 9.55431434 0 7 C0 4.69 0 2.38 0 0 Z " fill="#D4D4D4" transform="translate(328,249)"/>
<path d="M0 0 C5.94 0 11.88 0 18 0 C18 2.64 18 5.28 18 8 C17.01 8 16.02 8 15 8 C15 16.25 15 24.5 15 33 C17.31 33 19.62 33 22 33 C22 30.69 22 28.38 22 26 C25.3 26 28.6 26 32 26 C32 30.95 32 35.9 32 41 C21.11 41 10.22 41 -1 41 C-1 38.36 -1 35.72 -1 33 C0.32 33 1.64 33 3 33 C3 24.42 3 15.84 3 7 C2.01 7 1.02 7 0 7 C0 4.69 0 2.38 0 0 Z " fill="#D5D6D5" transform="translate(229,249)"/>
<path d="M0 0 C-1.80548496 4.63335297 -5.55569359 7.54366382 -9.1875 10.7578125 C-10.89708041 12.30813856 -10.89708041 12.30813856 -13 15 C-12.979375 15.98484375 -12.95875 16.9696875 -12.9375 17.984375 C-13 21 -13 21 -15.7109375 23.9296875 C-16.91606579 24.93130907 -18.13861623 25.91222529 -19.375 26.875 C-20.68124433 27.91895216 -21.98723319 28.96322405 -23.29296875 30.0078125 C-24.25468994 30.76626465 -24.25468994 30.76626465 -25.23583984 31.54003906 C-27.19161116 33.10554666 -27.19161116 33.10554666 -29.48828125 35.5546875 C-34.25067506 40.30862235 -37.88831819 41.40655583 -44.46801758 41.53613281 C-48.3274613 41.4836475 -52.15046212 41.28456543 -56 41 C-56.19335938 42.01320312 -56.38671875 43.02640625 -56.5859375 44.0703125 C-56.84874923 45.42191568 -57.11178183 46.77347592 -57.375 48.125 C-57.50132812 48.79015625 -57.62765625 49.4553125 -57.7578125 50.140625 C-58.5574274 54.218661 -59.59869485 58.08853085 -61 62 C-62.83875553 58.62066551 -63.98851107 55.17043833 -65.125 51.5 C-65.47820312 50.3759375 -65.83140625 49.251875 -66.1953125 48.09375 C-67 45 -67 45 -67 41 C-74.59 41 -82.18 41 -90 41 C-90 40.67 -90 40.34 -90 40 C-89.3294458 39.98018066 -88.6588916 39.96036133 -87.96801758 39.93994141 C-84.91579839 39.84440285 -81.86423659 39.73484055 -78.8125 39.625 C-77.75740234 39.5940625 -76.70230469 39.563125 -75.61523438 39.53125 C-74.08286133 39.47324219 -74.08286133 39.47324219 -72.51953125 39.4140625 C-71.58214111 39.3826416 -70.64475098 39.3512207 -69.67895508 39.31884766 C-66.81930193 38.97849342 -64.63061391 38.1423461 -62 37 C-60.7315625 36.7525 -60.7315625 36.7525 -59.4375 36.5 C-56.98987147 36.11221731 -56.98987147 36.11221731 -54.9375 34.9375 C-53 34 -53 34 -49 34 C-49 33.34 -49 32.68 -49 32 C-47.99453125 31.62101562 -46.9890625 31.24203125 -45.953125 30.8515625 C-41.65720634 29.01076352 -38.32268679 26.3445059 -34.75 23.375 C-28.36530172 18.12176724 -28.36530172 18.12176724 -25 17 C-24.505 18.98 -24.505 18.98 -24 21 C-23.37955811 20.36384766 -22.75911621 19.72769531 -22.11987305 19.07226562 C-19.8167856 16.71808469 -17.50711632 14.3707829 -15.19262695 12.02783203 C-14.19185072 11.01195893 -13.19378218 9.99341103 -12.19848633 8.97216797 C-10.7682527 7.50559059 -9.32859157 6.04887437 -7.88671875 4.59375 C-7.02264404 3.71396484 -6.15856934 2.83417969 -5.26831055 1.92773438 C-3 0 -3 0 0 0 Z " fill="#0F1B0C" transform="translate(194,208)"/>
<path d="M0 0 C4.40617281 2.16303029 7.1644597 4.41114924 9 9 C9.71091959 13.66047288 9.51221747 17.65440388 7.3125 21.875 C4.8988414 25.13670081 3.78131552 26.60255731 0 28 C-4.13249868 28.61606764 -8.10840728 28.97480852 -11.91015625 27.015625 C-15.63853001 24.04758299 -17.69875727 21.09918619 -18.37109375 16.4140625 C-18.57245714 7.95680013 -18.57245714 7.95680013 -15.6875 4.4375 C-10.46661964 -0.29771707 -6.84854087 -0.86406824 0 0 Z " fill="#EA8031" transform="translate(139,307)"/>
<path d="M0 0 C6.27 0 12.54 0 19 0 C19 2.31 19 4.62 19 7 C17.68 7 16.36 7 15 7 C15 15.58 15 24.16 15 33 C16.32 33 17.64 33 19 33 C19 35.64 19 38.28 19 41 C12.4 41 5.8 41 -1 41 C-1 38.36 -1 35.72 -1 33 C0.32 33 1.64 33 3 33 C3 24.42 3 15.84 3 7 C2.01 7 1.02 7 0 7 C0 4.69 0 2.38 0 0 Z " fill="#D5D6D5" transform="translate(74,249)"/>
<path d="M0 0 C1.98 0 3.96 0 6 0 C8.07451407 2.10149475 9.60157083 3.91871628 11.25 6.3125 C11.683125 6.90740234 12.11625 7.50230469 12.5625 8.11523438 C14.4365111 10.7035676 16.22753797 13.34130696 18 16 C18.33 10.72 18.66 5.44 19 0 C20.98 0 22.96 0 25 0 C25 9.24 25 18.48 25 28 C19 28 19 28 17.21728516 26.53125 C16.74597168 25.8609375 16.2746582 25.190625 15.7890625 24.5 C15.26699219 23.778125 14.74492187 23.05625 14.20703125 22.3125 C13.68496094 21.549375 13.16289062 20.78625 12.625 20 C12.07972656 19.236875 11.53445313 18.47375 10.97265625 17.6875 C9.63076038 15.80413737 8.31299195 13.90362587 7 12 C6.67 17.28 6.34 22.56 6 28 C4.02 28 2.04 28 0 28 C0 18.76 0 9.52 0 0 Z " fill="#EE8232" transform="translate(259,307)"/>
<path d="M0 0 C14 0 14 0 19 4 C20.0625 7.375 20.0625 7.375 20 11 C18.0625 14.4375 18.0625 14.4375 16 17 C16.5775 17.71027344 17.155 18.42054688 17.75 19.15234375 C18.4925 20.07144531 19.235 20.99054688 20 21.9375 C21.11375 23.31228516 21.11375 23.31228516 22.25 24.71484375 C24 27 24 27 24 28 C20.9375 28.5 20.9375 28.5 17 28 C13.72270539 25.17985258 10.93832007 21.87664015 9 18 C8.01 17.67 7.02 17.34 6 17 C6 20.63 6 24.26 6 28 C4.02 28 2.04 28 0 28 C0 18.76 0 9.52 0 0 Z " fill="#EA8031" transform="translate(214,307)"/>
<path d="M0 0 C5.94 0 11.88 0 18 0 C18 1.98 18 3.96 18 6 C14.37 6 10.74 6 7 6 C7 7.32 7 8.64 7 10 C10.3 10 13.6 10 17 10 C17 11.98 17 13.96 17 16 C13.37 16 9.74 16 6 16 C6 18.31 6 20.62 6 23 C9.96 23 13.92 23 18 23 C18 24.65 18 26.3 18 28 C12.06 28 6.12 28 0 28 C0 18.76 0 9.52 0 0 Z " fill="#E37D30" transform="translate(306,307)"/>
<path d="M0 0 C1.98 0 3.96 0 6 0 C6.02505615 0.60062256 6.0501123 1.20124512 6.07592773 1.82006836 C6.1915528 4.52611437 6.31442936 7.23178283 6.4375 9.9375 C6.47681641 10.88302734 6.51613281 11.82855469 6.55664062 12.80273438 C6.59853516 13.70185547 6.64042969 14.60097656 6.68359375 15.52734375 C6.72025146 16.35999756 6.75690918 17.19265137 6.79467773 18.05053711 C6.79367103 20.00338858 6.79367103 20.00338858 8 21 C10.45809998 21.2500773 10.45809998 21.2500773 13 21 C15.3968665 18.6031335 15.28281133 17.92971686 15.4140625 14.6484375 C15.45273438 13.79765625 15.49140625 12.946875 15.53125 12.0703125 C15.5621875 11.18085938 15.593125 10.29140625 15.625 9.375 C15.68300781 8.02921875 15.68300781 8.02921875 15.7421875 6.65625 C15.83659357 4.4377073 15.92216748 2.21917597 16 0 C17.98 0 19.96 0 22 0 C22.11698258 3.20802233 22.18750607 6.41549025 22.25 9.625 C22.28351563 10.52863281 22.31703125 11.43226563 22.3515625 12.36328125 C22.43538198 18.10491534 21.94604259 21.5003759 18 26 C13.98141405 28.6790573 10.72358279 28.69610694 6 28 C3.12970131 26.20606332 1.50868362 25.01736724 0 22 C-0.08426094 20.3325394 -0.10725143 18.66174813 -0.09765625 16.9921875 C-0.09443359 16.00605469 -0.09121094 15.01992188 -0.08789062 14.00390625 C-0.07951172 12.97136719 -0.07113281 11.93882812 -0.0625 10.875 C-0.05798828 9.83472656 -0.05347656 8.79445313 -0.04882812 7.72265625 C-0.03701952 5.14838038 -0.02055075 2.57421854 0 0 Z " fill="#E98031" transform="translate(170,307)"/>
<path d="M0 0 C3.0625 2.5 3.0625 2.5 5 5 C1.64672361 7.23551759 1.09256343 7.17283528 -2.6875 6.625 C-3.89986328 6.45871094 -3.89986328 6.45871094 -5.13671875 6.2890625 C-6.05904297 6.14597656 -6.05904297 6.14597656 -7 6 C-7 7.32 -7 8.64 -7 10 C-6.31292969 10.17015625 -5.62585938 10.3403125 -4.91796875 10.515625 C-4.01691406 10.75796875 -3.11585938 11.0003125 -2.1875 11.25 C-0.84751953 11.59804688 -0.84751953 11.59804688 0.51953125 11.953125 C3.43557887 13.18383486 4.46916028 14.25364304 6 17 C6 21.07635432 5.61344006 23.22825283 3.0625 26.4375 C-1.3150898 28.67096418 -5.17855873 28.79830421 -10 28 C-13.125 26.1875 -13.125 26.1875 -15 24 C-15 23.01 -15 22.02 -15 21 C-12.625 20.375 -12.625 20.375 -10 20 C-9.34 20.66 -8.68 21.32 -8 22 C-4.91652174 22.16681109 -4.91652174 22.16681109 -2 22 C-1.67 20.68 -1.34 19.36 -1 18 C-1.59167969 17.91363281 -2.18335938 17.82726562 -2.79296875 17.73828125 C-6.92455517 17.00362722 -9.63797457 16.2534178 -13.125 13.8125 C-15 11 -15 11 -15.125 7.4375 C-12.72884147 0.11590448 -7.13024392 -1.56014379 0 0 Z " fill="#EB8131" transform="translate(407,307)"/>
<path d="M0 0 C5.24934383 -0.52493438 5.24934383 -0.52493438 8 0 C12 4.6 12 4.6 12 8 C12.66 8 13.32 8 14 8 C14.28875 7.236875 14.5775 6.47375 14.875 5.6875 C16 3 16 3 18 0 C19.9453125 -0.29296875 19.9453125 -0.29296875 22.125 -0.1875 C23.40375 -0.125625 24.6825 -0.06375 26 0 C24.87540329 1.77108948 23.75030797 3.54186236 22.625 5.3125 C21.99851562 6.29863281 21.37203125 7.28476562 20.7265625 8.30078125 C19.50348387 10.21287929 18.2590644 12.1114034 17 14 C16.70547416 16.38677076 16.5071783 18.78626094 16.375 21.1875 C16.30023438 22.45980469 16.22546875 23.73210937 16.1484375 25.04296875 C16.09945313 26.01878906 16.05046875 26.99460937 16 28 C14.02 28 12.04 28 10 28 C10.03222656 27.14019531 10.06445312 26.28039062 10.09765625 25.39453125 C9.99152151 14.58058019 6.50591807 9.24082955 0 1 C0 0.67 0 0.34 0 0 Z " fill="#ED8232" transform="translate(345,307)"/>
<path d="M0 0 C3.88487189 1.62301536 6.41975531 5.46379914 9.17285156 8.54516602 C12.48865137 11.2774989 14.64563453 11.71454711 18.90332031 11.79516602 C19.56332031 11.13516602 20.22332031 10.47516602 20.90332031 9.79516602 C21.39832031 12.27016602 21.39832031 12.27016602 21.90332031 14.79516602 C21.24332031 14.79516602 20.58332031 14.79516602 19.90332031 14.79516602 C19.57332031 15.45516602 19.24332031 16.11516602 18.90332031 16.79516602 C11.34883283 14.69669727 6.21417463 10.53045336 0.90332031 4.79516602 C0.90332031 4.13516602 0.90332031 3.47516602 0.90332031 2.79516602 C-5.2791175 6.07564322 -10.64108174 10.13243108 -16.15917969 14.42016602 C-18.02281699 15.84978551 -19.88740299 17.27816914 -21.75292969 18.70532227 C-22.66042969 19.40028809 -23.56792969 20.09525391 -24.50292969 20.8112793 C-28.03902989 23.51594329 -31.57739148 26.21372084 -35.15917969 28.85766602 C-35.71162354 29.28063965 -36.26406738 29.70361328 -36.83325195 30.1394043 C-40.46418935 32.78518589 -40.46418935 32.78518589 -43.07714844 32.82641602 C-46.08325227 31.29138427 -48.69727452 29.30211766 -51.34667969 27.23266602 C-51.90097656 26.80791992 -52.45527344 26.38317383 -53.02636719 25.94555664 C-54.38757379 24.90118261 -55.74273802 23.84894137 -57.09667969 22.79516602 C-56.10667969 21.31016602 -56.10667969 21.31016602 -55.09667969 19.79516602 C-54.34902344 20.45645508 -53.60136719 21.11774414 -52.83105469 21.79907227 C-51.84621094 22.6434082 -50.86136719 23.48774414 -49.84667969 24.35766602 C-48.87214844 25.20458008 -47.89761719 26.05149414 -46.89355469 26.92407227 C-44.3846829 29.037754 -44.3846829 29.037754 -42.16430664 28.57885742 C-39.85141008 27.70220162 -38.19411553 26.61426141 -36.21777344 25.12719727 C-35.47019775 24.5697583 -34.72262207 24.01231934 -33.95239258 23.43798828 C-33.15438232 22.83398193 -32.35637207 22.22997559 -31.53417969 21.60766602 C-30.70587646 20.99141357 -29.87757324 20.37516113 -29.02416992 19.74023438 C-24.57873688 16.43055399 -20.16295931 13.08391889 -15.76074219 9.71704102 C-14.90552979 9.07017334 -14.05031738 8.42330566 -13.16918945 7.75683594 C-11.51809111 6.50755143 -9.8750465 5.24753835 -8.2409668 3.97607422 C-7.11960327 3.1304895 -7.11960327 3.1304895 -5.97558594 2.26782227 C-5.32146729 1.76516846 -4.66734863 1.26251465 -3.9934082 0.74462891 C-2.09667969 -0.20483398 -2.09667969 -0.20483398 0 0 Z " fill="#272815" transform="translate(253.0966796875,184.204833984375)"/>
<path d="M0 0 C1.98 0 3.96 0 6 0 C6.14560195 3.72875388 6.23417043 7.45677434 6.3125 11.1875 C6.35439453 12.24259766 6.39628906 13.29769531 6.43945312 14.38476562 C6.56279012 22.20433121 6.56279012 22.20433121 3.734375 26.203125 C-0.40315277 28.92207182 -2.12579035 28.69631566 -7 28 C-9.5 26.1875 -9.5 26.1875 -11 24 C-11 23.01 -11 22.02 -11 21 C-6.97128525 19.96404478 -5.34944269 20.13011146 -1 21 C-0.67 14.07 -0.34 7.14 0 0 Z " fill="#EB8132" transform="translate(93,307)"/>
<path d="M0 0 C2.4375 1.5625 2.4375 1.5625 4 4 C4.59677999 8.10286241 4.38925759 10.26819573 2.4375 13.9375 C0 16 0 16 -3.5 16.5625 C-7 16 -7 16 -9.4375 14.5 C-11.63828902 10.97873756 -11.80414661 8.04560357 -11 4 C-8.16250305 -0.53999512 -5.10870514 -0.72981502 0 0 Z " fill="#081201" transform="translate(138,313)"/>
<path d="M0 0 C2.88485278 1.36172136 5.42010567 2.91737472 8.00390625 4.78515625 C8.74447266 5.31560547 9.48503906 5.84605469 10.24804688 6.39257812 C11.79543821 7.50905035 13.34231059 8.62624217 14.88867188 9.74414062 C15.62794922 10.27330078 16.36722656 10.80246094 17.12890625 11.34765625 C17.79994385 11.83242432 18.47098145 12.31719238 19.16235352 12.81665039 C21.09753122 14.17015014 21.09753122 14.17015014 24 15 C24 12.69 24 10.38 24 8 C24.33 8 24.66 8 25 8 C25.061875 9.03125 25.12375 10.0625 25.1875 11.125 C26.18548657 15.88462827 27.70490867 17.53592963 31 21 C30.24460937 20.68289062 29.48921875 20.36578125 28.7109375 20.0390625 C23.68212016 18.63099364 18.82448599 18.53601634 13.625 18.375 C12.60277344 18.33632812 11.58054687 18.29765625 10.52734375 18.2578125 C8.01840403 18.16402036 5.50946236 18.07832121 3 18 C4.32 17.34 5.64 16.68 7 16 C6.40362909 14.41371392 5.79754075 12.83107941 5.1875 11.25 C4.85105469 10.36828125 4.51460938 9.4865625 4.16796875 8.578125 C3.03112171 6.06869674 1.6558864 4.18254368 0 2 C0 1.34 0 0.68 0 0 Z " fill="#0E190A" transform="translate(279,231)"/>
<path d="M0 0 C0.66 0.33 1.32 0.66 2 1 C1.54625 1.5775 1.0925 2.155 0.625 2.75 C-1.01936743 4.87058021 -1.01936743 4.87058021 -1.89306641 6.96582031 C-3.8234502 10.51323049 -7.15258824 12.42473697 -10.375 14.75 C-11.38433594 15.50990234 -11.38433594 15.50990234 -12.4140625 16.28515625 C-13.06890625 16.76339844 -13.72375 17.24164063 -14.3984375 17.734375 C-14.99317871 18.16975586 -15.58791992 18.60513672 -16.20068359 19.05371094 C-18 20 -18 20 -22 20 C-22 20.66 -22 21.32 -22 22 C-23.59915881 22.69906942 -25.20455045 23.38389468 -26.8125 24.0625 C-27.70582031 24.44535156 -28.59914062 24.82820313 -29.51953125 25.22265625 C-32 26 -32 26 -35 25 C-33.34677734 24.05253906 -33.34677734 24.05253906 -31.66015625 23.0859375 C-20.18734255 16.36905711 -10.01759418 8.72654843 0 0 Z " fill="#CCCDCB" transform="translate(167,220)"/>
<path d="M0 0 C4.57543988 0.85923754 8.17769305 3.29847931 12.1484375 5.625 C15.15863901 7.07649443 17.70512024 7.55855893 21 8 C22.68375165 8.62225605 24.35767228 9.27544365 26 10 C26 10.33 26 10.66 26 11 C19.73 11 13.46 11 7 11 C7 13.31 7 15.62 7 18 C7.66 18.33 8.32 18.66 9 19 C8.01 19 7.02 19 6 19 C6 16.03 6 13.06 6 10 C6.66 9.67 7.32 9.34 8 9 C7.4225 8.67386719 6.845 8.34773437 6.25 8.01171875 C5.5075 7.57472656 4.765 7.13773438 4 6.6875 C2.88625 6.04361328 2.88625 6.04361328 1.75 5.38671875 C0.88375 4.70029297 0.88375 4.70029297 0 4 C0 2.66666667 0 1.33333333 0 0 Z " fill="#0D190A" transform="translate(321,238)"/>
<path d="M0 0 C0.33 0 0.66 0 1 0 C1.04898438 0.84304687 1.09796875 1.68609375 1.1484375 2.5546875 C1.22320312 3.65039062 1.29796875 4.74609375 1.375 5.875 C1.44460937 6.96554688 1.51421875 8.05609375 1.5859375 9.1796875 C1.73253491 12.13046474 1.73253491 12.13046474 4 14 C-2.88972629 17.23968321 -9.77063497 20.40759658 -16.87890625 23.140625 C-19.03741464 23.96339474 -19.03741464 23.96339474 -21.08984375 25.171875 C-23 26 -23 26 -26 25 C-22.2087859 22.85336633 -18.41695268 20.70782868 -14.625 18.5625 C-13.54476562 17.95083984 -12.46453125 17.33917969 -11.3515625 16.70898438 C-10.3203125 16.12568359 -9.2890625 15.54238281 -8.2265625 14.94140625 C-7.27346191 14.40201416 -6.32036133 13.86262207 -5.33837891 13.30688477 C-3.90865767 12.50783509 -2.46494593 11.73247296 -1 11 C-0.5316735 8.41394668 -0.5316735 8.41394668 -0.375 5.4375 C-0.30023438 4.42558594 -0.22546875 3.41367188 -0.1484375 2.37109375 C-0.09945312 1.58863281 -0.05046875 0.80617187 0 0 Z " fill="#868A84" transform="translate(248,217)"/>
<path d="M0 0 C2.52185205 1.15477003 4.05781274 2.82893442 5.90234375 4.87109375 C4.58234375 4.87109375 3.26234375 4.87109375 1.90234375 4.87109375 C1.66773438 5.433125 1.433125 5.99515625 1.19140625 6.57421875 C-0.40428625 9.41745266 -2.38690168 11.35207502 -4.72265625 13.62109375 C-5.53992188 14.4203125 -6.3571875 15.21953125 -7.19921875 16.04296875 C-7.82570312 16.64625 -8.4521875 17.24953125 -9.09765625 17.87109375 C-9.75765625 17.54109375 -10.41765625 17.21109375 -11.09765625 16.87109375 C-10.31519531 16.10023438 -9.53273437 15.329375 -8.7265625 14.53515625 C-7.70429568 13.52226802 -6.68216744 12.50923991 -5.66015625 11.49609375 C-5.14388672 10.98820313 -4.62761719 10.4803125 -4.09570312 9.95703125 C-1.24052325 7.18540439 -1.24052325 7.18540439 0.90234375 3.87109375 C-2.11131597 5.55519771 -4.52821296 7.27857697 -6.97265625 9.68359375 C-8.00390625 10.40546875 -9.03515625 11.12734375 -10.09765625 11.87109375 C-13.97265625 11.18359375 -13.97265625 11.18359375 -17.09765625 9.87109375 C-17.09765625 9.54109375 -17.09765625 9.21109375 -17.09765625 8.87109375 C-16.10765625 8.87109375 -15.11765625 8.87109375 -14.09765625 8.87109375 C-9.28866215 8.26631153 -6.9972529 5.02581241 -3.9921875 1.48828125 C-2.09765625 -0.12890625 -2.09765625 -0.12890625 0 0 Z " fill="#C9CAC8" transform="translate(193.09765625,204.12890625)"/>
<path d="M0 0 C-1.60021553 4.01958901 -4.44881308 6.67630773 -7.5 9.625 C-7.99886719 10.11484375 -8.49773437 10.6046875 -9.01171875 11.109375 C-10.33735065 12.41012909 -11.66838366 13.705373 -13 15 C-13.66 15.66 -14.32 16.32 -15 17 C-15.66 17 -16.32 17 -17 17 C-18.58528354 18.48371941 -20.00814672 20.07805469 -21.46484375 21.6875 C-23 23 -23 23 -26 23 C-26.33 21.02 -26.66 19.04 -27 17 C-26.34 17 -25.68 17 -25 17 C-24.67 18.32 -24.34 19.64 -24 21 C-23.37955811 20.36384766 -22.75911621 19.72769531 -22.11987305 19.07226562 C-19.8167856 16.71808469 -17.50711632 14.3707829 -15.19262695 12.02783203 C-14.19185072 11.01195893 -13.19378218 9.99341103 -12.19848633 8.97216797 C-10.7682527 7.50559059 -9.32859157 6.04887437 -7.88671875 4.59375 C-7.02264404 3.71396484 -6.15856934 2.83417969 -5.26831055 1.92773438 C-3 0 -3 0 0 0 Z " fill="#252F22" transform="translate(194,208)"/>
<path d="M0 0 C2.37599719 3.56399578 3.15731805 7.08381174 4.125 11.1875 C4.39763672 12.31188477 4.39763672 12.31188477 4.67578125 13.45898438 C5.12251686 15.30470781 5.5619694 17.15219132 6 19 C5.34 19 4.68 19 4 19 C4 21.31 4 23.62 4 26 C3.67 26 3.34 26 3 26 C3 23.36 3 20.72 3 18 C2.01 18 1.02 18 0 18 C0 12.06 0 6.12 0 0 Z " fill="#162113" transform="translate(117,264)"/>
<path d="M0 0 C0.66 0.33 1.32 0.66 2 1 C1.360625 1.78375 0.72125 2.5675 0.0625 3.375 C-1.98142313 5.79539281 -1.98142313 5.79539281 -3 8 C-4.32 8 -5.64 8 -7 8 C-7 8.66 -7 9.32 -7 10 C-8.59915881 10.69906942 -10.20455045 11.38389468 -11.8125 12.0625 C-12.70582031 12.44535156 -13.59914062 12.82820312 -14.51953125 13.22265625 C-17 14 -17 14 -20 13 C-19.4652002 12.67725098 -18.93040039 12.35450195 -18.37939453 12.02197266 C-15.95945632 10.55928016 -13.54220889 9.09219811 -11.125 7.625 C-10.28324219 7.11710938 -9.44148437 6.60921875 -8.57421875 6.0859375 C-7.76855469 5.59609375 -6.96289062 5.10625 -6.1328125 4.6015625 C-5.01737061 3.92601318 -5.01737061 3.92601318 -3.87939453 3.23681641 C-1.87136419 2.00600153 -1.87136419 2.00600153 0 0 Z " fill="#B7B9B7" transform="translate(152,232)"/>
<path d="M0 0 C0.33 0 0.66 0 1 0 C1.061875 1.03125 1.12375 2.0625 1.1875 3.125 C2.18548657 7.88462827 3.70490867 9.53592963 7 13 C6.24460937 12.68289062 5.48921875 12.36578125 4.7109375 12.0390625 C-0.31787984 10.63099364 -5.17551401 10.53601634 -10.375 10.375 C-11.39722656 10.33632812 -12.41945313 10.29765625 -13.47265625 10.2578125 C-15.98159597 10.16402036 -18.49053764 10.07832121 -21 10 C-19.68 9.34 -18.36 8.68 -17 8 C-17 7.01 -17 6.02 -17 5 C-16.34 6.32 -15.68 7.64 -15 9 C-10.38 9 -5.76 9 -1 9 C-0.67 6.03 -0.34 3.06 0 0 Z " fill="#384134" transform="translate(303,239)"/>
<path d="M0 0 C2.42130331 2.42130331 2.52840504 3.80111377 3.125 7.125 C3.29257812 8.03507812 3.46015625 8.94515625 3.6328125 9.8828125 C3.81457031 10.93082031 3.81457031 10.93082031 4 12 C1.69 12 -0.62 12 -3 12 C-2.69106068 10.3743193 -2.3777305 8.74947252 -2.0625 7.125 C-1.88847656 6.22007812 -1.71445312 5.31515625 -1.53515625 4.3828125 C-1 2 -1 2 0 0 Z " fill="#182315" transform="translate(293,259)"/>
<path d="M0 0 C2.42130331 2.42130331 2.52840504 3.80111377 3.125 7.125 C3.29257813 8.03507812 3.46015625 8.94515625 3.6328125 9.8828125 C3.81457031 10.93082031 3.81457031 10.93082031 4 12 C1.69 12 -0.62 12 -3 12 C-2.69106068 10.3743193 -2.3777305 8.74947252 -2.0625 7.125 C-1.88847656 6.22007812 -1.71445313 5.31515625 -1.53515625 4.3828125 C-1 2 -1 2 0 0 Z " fill="#182315" transform="translate(192,259)"/>
<path d="M0 0 C2 1 2 1 3.125 4.3125 C4 8 4 8 4 12 C1.69 12 -0.62 12 -3 12 C-2.01 8.04 -1.02 4.08 0 0 Z " fill="#182315" transform="translate(397,259)"/>
<path d="M0 0 C1.875 0.25 1.875 0.25 4 1 C4.268125 1.5775 4.53625 2.155 4.8125 2.75 C6.42201687 5.79961091 8.7009605 7.07838825 11.5390625 8.94921875 C12.02117187 9.29597656 12.50328125 9.64273438 13 10 C13 10.33 13 10.66 13 11 C11.02 11 9.04 11 7 11 C7 13.31 7 15.62 7 18 C7.66 18.33 8.32 18.66 9 19 C8.01 19 7.02 19 6 19 C6 16.03 6 13.06 6 10 C6.66 9.67 7.32 9.34 8 9 C7.4225 8.67386719 6.845 8.34773437 6.25 8.01171875 C5.5075 7.57472656 4.765 7.13773438 4 6.6875 C2.88625 6.04361328 2.88625 6.04361328 1.75 5.38671875 C0.88375 4.70029297 0.88375 4.70029297 0 4 C0 2.66666667 0 1.33333333 0 0 Z " fill="#5F665D" transform="translate(321,238)"/>
<path d="M0 0 C0.721875 0.103125 1.44375 0.20625 2.1875 0.3125 C0.54447047 2.00247323 -1.12721312 3.66466394 -2.8125 5.3125 C-3.59625 6.116875 -4.38 6.92125 -5.1875 7.75 C-7.8125 9.3125 -7.8125 9.3125 -11.625 8.5625 C-12.676875 8.15 -13.72875 7.7375 -14.8125 7.3125 C-14.8125 6.9825 -14.8125 6.6525 -14.8125 6.3125 C-13.2346875 6.2196875 -13.2346875 6.2196875 -11.625 6.125 C-6.4634512 5.0249978 -4.97029193 0.55225466 0 0 Z " fill="#B1B3B0" transform="translate(190.8125,206.6875)"/>
<path d="M0 0 C2.31 0 4.62 0 7 0 C7.5625 1.9375 7.5625 1.9375 8 4 C7 5 7 5 3.4375 5.0625 C2.303125 5.041875 1.16875 5.02125 0 5 C0 3.35 0 1.7 0 0 Z " fill="#0F1502" transform="translate(220,313)"/>
<path d="M0 0 C0.66 0.33 1.32 0.66 2 1 C-0.35296542 6.33338829 -4.85195682 9.51924006 -10 12 C-10.99 11.67 -11.98 11.34 -13 11 C-8.71 7.37 -4.42 3.74 0 0 Z " fill="#AEB1AD" transform="translate(170,237)"/>
<path d="M0 0 C0.66 0 1.32 0 2 0 C2.83848804 1.45537568 3.67063934 2.91440373 4.5 4.375 C5.19609375 5.59316406 5.19609375 5.59316406 5.90625 6.8359375 C7 9 7 9 7 11 C5 11 5 11 3.45703125 9.609375 C2.91433594 8.99578125 2.37164062 8.3821875 1.8125 7.75 C0.98685547 6.84507812 0.98685547 6.84507812 0.14453125 5.921875 C-1 4 -1 4 -0.67578125 1.765625 C-0.45277344 1.18296875 -0.22976563 0.6003125 0 0 Z " fill="#BFC1BF" transform="translate(279,234)"/>
<path d="M0 0 C3.39853912 -0.39190361 4.76416967 -0.15423648 7.67578125 1.75 C8.54589844 2.4925 9.41601562 3.235 10.3125 4 C11.19550781 4.7425 12.07851563 5.485 12.98828125 6.25 C13.98408203 7.11625 13.98408203 7.11625 15 8 C14.01 8.495 14.01 8.495 13 9 C10.70539919 7.77896564 8.55906377 6.52037408 6.375 5.125 C5.76398438 4.74730469 5.15296875 4.36960938 4.5234375 3.98046875 C2.99375114 3.02100029 1.49395605 2.01420678 0 1 C0 0.67 0 0.34 0 0 Z " fill="#A3A6A2" transform="translate(355,236)"/>
<path d="M0 0 C0.33 0.66 0.66 1.32 1 2 C1.66 2 2.32 2 3 2 C3 5.3 3 8.6 3 12 C2.01 11.67 1.02 11.34 0 11 C0 7.37 0 3.74 0 0 Z " fill="#DFDFDF" transform="translate(249,218)"/>
<path d="M0 0 C0.66 0.33 1.32 0.66 2 1 C1.54625 1.5775 1.0925 2.155 0.625 2.75 C-0.84113516 4.7800333 -1.94857784 6.73539843 -3 9 C-4.65 8.67 -6.3 8.34 -8 8 C-5.33333333 5.33333333 -2.66666667 2.66666667 0 0 Z " fill="#C3C5C3" transform="translate(167,220)"/>
<path d="M0 0 C3.3 0 6.6 0 10 0 C8.02 0.99 8.02 0.99 6 2 C7.98 3.65 9.96 5.3 12 7 C11.01 7.495 11.01 7.495 10 8 C8.33055479 6.85821872 6.6645052 5.71147095 5 4.5625 C4.071875 3.92441406 3.14375 3.28632813 2.1875 2.62890625 C1.465625 2.09136719 0.74375 1.55382812 0 1 C0 0.67 0 0.34 0 0 Z " fill="#7A7F78" transform="translate(345,235)"/>
<path d="M0 0 C0 0.99 0 1.98 0 3 C-2.25 4.75 -2.25 4.75 -5 6 C-7.3125 5.6875 -7.3125 5.6875 -9 5 C-6.47043472 1.9083091 -3.77545388 1.09068668 0 0 Z " fill="#B2B4B1" transform="translate(246,230)"/>
<path d="M0 0 C0.66 0.33 1.32 0.66 2 1 C1.43410156 1.47050781 0.86820313 1.94101563 0.28515625 2.42578125 C-0.81505859 3.35970703 -0.81505859 3.35970703 -1.9375 4.3125 C-3.03384766 5.23482422 -3.03384766 5.23482422 -4.15234375 6.17578125 C-6.23820366 7.95975519 -6.23820366 7.95975519 -7 11 C-7.66 11 -8.32 11 -9 11 C-9.33 10.01 -9.66 9.02 -10 8 C-6.7 5.36 -3.4 2.72 0 0 Z " fill="#4A5247" transform="translate(197,227)"/>
<path d="M0 0 C2.9719385 1.12451727 5.33440687 2.22293791 8 4 C10.50896686 4.45601261 10.50896686 4.45601261 13.1875 4.625 C14.08855469 4.69976562 14.98960937 4.77453125 15.91796875 4.8515625 C16.60503906 4.90054688 17.29210937 4.94953125 18 5 C18 5.33 18 5.66 18 6 C8.6094863 7.86791412 8.6094863 7.86791412 4.7109375 5.765625 C2.97269183 4.26343738 1.42597986 2.80072542 0 1 C0 0.67 0 0.34 0 0 Z " fill="#5A6158" transform="translate(290,227)"/>
<path d="M0 0 C2 3 2 3 2 5 C1.34 5 0.68 5 0 5 C-0.33 5.66 -0.66 6.32 -1 7 C-3.31 6.34 -5.62 5.68 -8 5 C-7.67 4.01 -7.34 3.02 -7 2 C-5.02 2 -3.04 2 -1 2 C-0.67 1.34 -0.34 0.68 0 0 Z " fill="#493C20" transform="translate(273,194)"/>
<path d="M0 0 C3.63 1.98 7.26 3.96 11 6 C8 7 8 7 5.51953125 6.00390625 C4.62621094 5.52824219 3.73289062 5.05257812 2.8125 4.5625 C1.91144531 4.08941406 1.01039063 3.61632812 0.08203125 3.12890625 C-0.60503906 2.75636719 -1.29210937 2.38382813 -2 2 C-1.34 1.34 -0.68 0.68 0 0 Z " fill="#8D918B" transform="translate(328,239)"/>
<path d="M0 0 C0.33 0 0.66 0 1 0 C1.061875 1.03125 1.12375 2.0625 1.1875 3.125 C2.18548657 7.88462827 3.70490867 9.53592963 7 13 C1.47619048 11.55900621 1.47619048 11.55900621 -0.4375 9.3125 C-1.23458406 6.03559888 -0.63025067 3.27730347 0 0 Z " fill="#777D75" transform="translate(303,239)"/>
<path d="M0 0 C0.66 0.268125 1.32 0.53625 2 0.8125 C0.66666667 1.47916667 -0.66666667 2.14583333 -2 2.8125 C-3.010625 3.369375 -4.02125 3.92625 -5.0625 4.5 C-8 5.8125 -8 5.8125 -11 4.8125 C-3.9452954 -0.24658096 -3.9452954 -0.24658096 0 0 Z " fill="#9B9F9A" transform="translate(143,240.1875)"/>
<path d="M0 0 C3 1.8125 3 1.8125 6 4 C6 4.99 6 5.98 6 7 C3.11562221 5.70700306 1.12780579 4.34058637 -1 2 C-0.67 1.34 -0.34 0.68 0 0 Z " fill="#2F2E1A" transform="translate(197,204)"/>
<path d="M0 0 C3.26954202 0.56371414 4.82575883 1.49962266 7 4 C4.03 3.505 4.03 3.505 1 3 C1.33 3.66 1.66 4.32 2 5 C0.35 4.67 -1.3 4.34 -3 4 C-2.34 3.67 -1.68 3.34 -1 3 C-0.67 2.01 -0.34 1.02 0 0 Z " fill="#C4C6C4" transform="translate(321,236)"/>
<path d="M0 0 C2.64 0.99 5.28 1.98 8 3 C8 3.33 8 3.66 8 4 C3.71 4 -0.58 4 -5 4 C-3.68 3.01 -2.36 2.02 -1 1 C-0.67 0.67 -0.34 0.34 0 0 Z " fill="#3E473B" transform="translate(339,245)"/>
<path d="M0 0 C2.46800047 1.15173355 4.04783565 2.04783565 6 4 C8.57061311 4.64767793 8.57061311 4.64767793 11 5 C11 5.33 11 5.66 11 6 C4.63636364 6.48951049 4.63636364 6.48951049 1.5625 4.125 C0 2 0 2 0 0 Z " fill="#121907" transform="translate(260,192)"/>
<path d="M0 0 C0.99 0.33 1.98 0.66 3 1 C-0.19990508 3.74277578 -3.00499382 5.6302836 -7 7 C-4.66666667 4.66666667 -2.33333333 2.33333333 0 0 Z " fill="#B6B8B6" transform="translate(197,229)"/>
<path d="M0 0 C0.66 0.99 1.32 1.98 2 3 C1.360625 3.268125 0.72125 3.53625 0.0625 3.8125 C-2.33131686 4.88667752 -2.33131686 4.88667752 -3 8 C-3.66 8 -4.32 8 -5 8 C-3.62845496 5.04590299 -2.01136276 2.55991624 0 0 Z " fill="#A1A4A0" transform="translate(249,198)"/>
<path d="M0 0 C1.875 0.25 1.875 0.25 4 1 C5.1875 2.9375 5.1875 2.9375 6 5 C6.33 5.66 6.66 6.32 7 7 C4.08482708 5.92598892 2.22189824 5.22189824 0 3 C0 2.01 0 1.02 0 0 Z " fill="#91958F" transform="translate(321,238)"/>
<path d="M0 0 C0.66 0.33 1.32 0.66 2 1 C0.8125 3.5 0.8125 3.5 -1 6 C-3.6875 6.3125 -3.6875 6.3125 -6 6 C-4 4 -2 2 0 0 Z " fill="#BBBDBB" transform="translate(170,237)"/>
</svg>
